<svg width="876" height="1080" viewBox="0 0 876 1080" fill="none" xmlns="http://www.w3.org/2000/svg">
<path d="M274.271 364.115C283.729 447.495 354.187 510.469 437.958 510.536C521.797 510.469 593.078 447.578 601.703 364.115L672.917 364.896C663.24 486.109 561.328 582.344 438.016 582.344C314.729 582.344 212.812 486.109 203.057 364.896L274.271 364.115ZM177.953 273.156C109.687 273.156 90.6875 285.219 81.5885 353.026L1.46352 978.177C-7.66148 1045.97 29.901 1075.03 98.2083 1075.03H777.74C846.083 1075.03 883.646 1045.97 874.484 978.177L794.443 353.026C785.234 285.219 766.313 273.156 698.047 273.156H177.953Z" fill="white"/>
<path d="M203.057 222.391H274.271C283.729 139.021 354.187 76.0625 437.958 75.9948C521.797 76.0625 593.078 138.958 601.703 222.391H672.917C663.187 101.255 561.328 4.1875 438.016 4.1875C314.729 4.20313 212.734 101.255 203.057 222.391Z" fill="white"/>
</svg>
