<svg width="1277" height="426" viewBox="0 0 1277 426" fill="none" xmlns="http://www.w3.org/2000/svg">
<path d="M59.2749 341.983C60.0629 342.23 60.8519 342.477 61.6409 342.724C62.8949 343.116 64.0189 343.153 65.0219 342.892C101.109 398.685 201.911 420.457 278.9 399.429C365.965 375.649 420.382 297.197 400.445 224.2C389.49 184.091 358.366 153.976 318.101 138.925C317.834 123.933 321.076 94.709 346.7 72.029C348.688 73.626 351.213 74.583 353.961 74.583C360.369 74.583 365.563 69.389 365.563 62.981C365.563 56.573 360.367 51.38 353.96 51.38C347.552 51.38 342.358 56.574 342.358 62.982C342.358 66.278 343.733 69.253 345.94 71.365C320.338 94.087 316.893 123.272 317.097 138.555C302.696 133.281 287.146 129.925 270.945 128.717C273.783 114.019 280.945 96.198 297.858 81.228C299.846 82.825 302.371 83.782 305.12 83.782C311.528 83.782 316.722 78.588 316.722 72.18C316.722 65.772 311.528 60.578 305.12 60.578C298.712 60.578 293.518 65.772 293.518 72.18C293.518 75.476 294.893 78.451 297.1 80.563C280.011 95.729 272.794 113.775 269.945 128.645C250.84 127.327 230.848 128.994 210.784 134.019C210.687 134.043 210.591 134.067 210.494 134.092C210.366 134.124 210.237 134.157 210.109 134.189C209.849 134.255 209.589 134.322 209.328 134.389C209.196 134.423 209.065 134.457 208.933 134.491C208.79 134.528 208.646 134.566 208.503 134.604C208.314 134.654 208.124 134.704 207.935 134.754C207.828 134.783 207.72 134.811 207.613 134.84C207.317 134.919 207.021 134.999 206.724 135.08L206.699 135.087C206.332 135.187 205.966 135.289 205.599 135.391L205.556 135.403C205.197 135.503 204.838 135.605 204.479 135.707L204.457 135.713C199.996 136.988 195.542 138.428 191.11 140.023C209.851 119.03 234.49 70.27 238.553 58.217C243.945 42.223 235.351 24.885 219.356 19.493C203.361 14.101 186.024 22.695 180.632 38.69C177.218 48.815 169.677 88.349 168.659 117.368C152.662 93.202 125.981 63.719 117.857 56.892C104.934 46.033 85.6559 47.706 74.7969 60.629C63.9379 73.552 65.6109 92.83 78.5339 103.689C88.9599 112.45 141.414 144.892 166.993 150.311C101.56 182.638 46.8969 246.247 51.7459 304.318C42.3229 308.447 35.1839 307.982 26.4219 310.277C24.7529 310.714 23.1219 311.439 22.1759 313.004C12.3709 329.223 52.3479 339.812 59.2749 341.983Z" fill="#B2DBD1"/>
<path d="M400.444 224.201C389.489 184.092 358.365 153.977 318.1 138.926C318.206 144.904 318.871 148.619 318.897 148.755C318.949 149.026 318.77 149.288 318.5 149.339L318.405 149.348C318.17 149.348 317.961 149.181 317.915 148.942C317.888 148.802 317.182 144.862 317.098 138.555C302.697 133.281 287.147 129.925 270.946 128.717C267.77 145.166 270.009 157.703 270.057 157.954C270.109 158.225 269.93 158.487 269.66 158.538L269.565 158.547C269.33 158.547 269.121 158.38 269.075 158.141C269.027 157.888 266.764 145.246 269.945 128.645C253.513 127.512 236.424 128.596 219.198 132.116L219.202 132.107C215.914 132.779 212.622 133.538 209.328 134.389C209.196 134.423 209.065 134.457 208.933 134.491C208.79 134.528 208.646 134.566 208.503 134.604C208.314 134.654 208.124 134.704 207.935 134.754C207.828 134.783 207.72 134.811 207.613 134.84C207.317 134.919 207.021 134.999 206.724 135.08L206.699 135.087C206.332 135.187 205.966 135.289 205.599 135.391L205.556 135.403C205.197 135.503 204.838 135.605 204.479 135.707L204.457 135.713C199.995 136.988 195.54 138.43 191.106 140.027C186.745 144.911 182.704 148.291 179.316 149.355C177.507 150.97 174.374 151.383 170.298 150.875C169.256 150.745 168.152 150.555 166.993 150.309C101.56 182.638 46.8969 246.247 51.7459 304.318C42.3229 308.447 35.1839 307.982 26.4219 310.277C24.7529 310.714 23.1219 311.439 22.1759 313.004C12.3709 329.223 52.3479 339.813 59.2749 341.984C60.0629 342.231 60.8519 342.478 61.6409 342.725C62.8949 343.117 64.0189 343.154 65.0219 342.893C78.0209 362.99 99.4159 378.671 125.071 389.528L125.085 389.534C125.982 389.913 126.884 390.287 127.791 390.655L127.829 390.67C128.114 390.785 128.399 390.9 128.684 391.014L128.743 391.038C129.347 391.279 129.953 391.517 130.56 391.753L130.568 391.756C130.865 391.871 131.162 391.985 131.46 392.099L131.509 392.118C132.429 392.47 133.354 392.815 134.284 393.155L134.29 393.157C165.168 404.436 201.13 409.149 235.704 406.656L235.707 406.659C249.464 405.667 262.998 403.53 275.907 400.214L275.889 400.199C276.892 399.942 277.904 399.702 278.899 399.431C365.964 375.65 420.381 297.197 400.444 224.201Z" fill="#F5D571"/>
<path d="M51.7459 304.318C42.3229 308.447 35.1839 307.982 26.4219 310.277C24.7529 310.714 23.1219 311.439 22.1759 313.004C12.3709 329.223 52.3479 339.813 59.2749 341.984C60.0629 342.231 60.8519 342.478 61.6409 342.725C62.8949 343.117 64.0189 343.154 65.0219 342.893C60.2989 335.591 56.6839 327.706 54.3769 319.258C53.0319 314.335 52.1659 309.347 51.7459 304.318Z" fill="#120E32"/>
<path d="M131.131 326.352C111.261 275.304 113.422 220.577 129.617 173.027C108.18 188.706 89.4278 207.521 75.6658 227.732C71.8268 261.611 75.3138 297.026 88.4718 330.829C96.8168 352.269 108.445 371.502 122.379 388.363C141.44 396.783 162.992 402.477 185.276 405.283C162.295 383.971 143.251 357.49 131.131 326.352Z" fill="#120E32"/>
<path d="M179.317 149.356C177.508 150.971 174.375 151.384 170.299 150.876C150.345 200.97 146.056 260.51 167.554 315.742C182.061 353.01 206.483 383.609 235.708 406.657C249.465 405.665 262.999 403.528 275.908 400.212C247.774 377.402 224.312 347.482 210.214 311.264C186.63 250.676 194.083 184.907 219.202 132.107C215.914 132.779 212.622 133.538 209.328 134.389C209.196 134.423 209.065 134.457 208.933 134.491C208.79 134.528 208.646 134.566 208.503 134.604C208.314 134.654 208.124 134.704 207.935 134.754C207.828 134.783 207.72 134.811 207.613 134.84C207.317 134.919 207.021 134.999 206.724 135.08L206.699 135.087C206.332 135.187 205.966 135.289 205.599 135.391L205.556 135.403C205.197 135.503 204.838 135.605 204.479 135.707L204.457 135.713C199.995 136.988 195.54 138.43 191.106 140.027C186.746 144.912 182.705 148.292 179.317 149.356Z" fill="#120E32"/>
<path d="M269.074 158.142C269.12 158.381 269.329 158.548 269.564 158.548L269.659 158.539C269.929 158.487 270.108 158.226 270.056 157.955C270.008 157.704 267.769 145.167 270.945 128.718C273.783 114.02 280.945 96.199 297.858 81.229C299.846 82.826 302.371 83.783 305.12 83.783C311.528 83.783 316.722 78.589 316.722 72.181C316.722 65.773 311.528 60.579 305.12 60.579C298.712 60.579 293.518 65.773 293.518 72.181C293.518 75.477 294.893 78.452 297.1 80.564C280.011 95.73 272.794 113.776 269.945 128.646C266.763 145.247 269.026 157.888 269.074 158.142Z" fill="#120E32"/>
<path d="M318.404 149.349L318.499 149.34C318.769 149.288 318.948 149.027 318.896 148.756C318.87 148.62 318.206 144.905 318.099 138.927C317.832 123.935 321.074 94.711 346.698 72.031C348.686 73.628 351.211 74.585 353.959 74.585C360.367 74.585 365.561 69.391 365.561 62.983C365.561 56.575 360.367 51.38 353.96 51.38C347.552 51.38 342.358 56.574 342.358 62.982C342.358 66.278 343.733 69.253 345.94 71.365C320.338 94.087 316.893 123.272 317.097 138.555C317.181 144.862 317.887 148.802 317.914 148.942C317.96 149.182 318.169 149.349 318.404 149.349Z" fill="#120E32"/>
<path d="M262.878 227.678C252.2 229.4 244.937 239.438 246.656 250.099C248.375 260.76 258.425 268.006 269.104 266.284C279.782 264.562 287.045 254.524 285.326 243.863C283.607 233.202 273.556 225.956 262.878 227.678Z" fill="#120E32"/>
<path d="M241.71 265.466C233.132 266.849 227.05 273.383 228.127 280.059C229.204 286.735 237.031 291.026 245.609 289.642C254.187 288.259 260.269 281.725 259.192 275.049C258.115 268.373 250.288 264.082 241.71 265.466Z" fill="#F04C42"/>
<path d="M372.274 230.201C370.555 219.54 360.505 212.294 349.826 214.016C339.148 215.738 331.885 225.776 333.604 236.437C335.323 247.098 345.373 254.344 356.052 252.622C366.731 250.9 373.993 240.862 372.274 230.201Z" fill="#120E32"/>
<path d="M381.8 243.233C373.222 244.616 367.14 251.15 368.217 257.826C369.294 264.502 377.121 268.792 385.699 267.409C394.277 266.026 400.359 259.492 399.282 252.816C398.206 246.14 390.379 241.85 381.8 243.233Z" fill="#F04C42"/>
<path d="M320.599 254.334C320.054 254.422 319.683 254.935 319.771 255.48C320.428 259.555 318.151 263.323 314.696 263.88C311.226 264.438 307.892 261.575 307.236 257.501C307.148 256.955 306.631 256.581 306.089 256.673C305.544 256.761 305.173 257.274 305.261 257.82C306.022 262.535 309.735 265.95 313.835 265.95C314.225 265.95 314.619 265.919 315.014 265.855C319.558 265.122 322.578 260.325 321.746 255.162C321.657 254.617 321.145 254.244 320.599 254.334Z" fill="#120E32"/>
<path d="M179.317 149.356C177.944 149.787 176.678 149.839 175.542 149.456C169.673 147.477 168.07 134.189 168.66 117.368C152.663 93.2019 125.982 63.7189 117.858 56.8919C104.935 46.0329 85.6572 47.7059 74.7982 60.6289C63.9392 73.5519 65.6122 92.8299 78.5352 103.689C88.9612 112.45 141.415 144.892 166.994 150.311C168.153 150.557 169.257 150.747 170.299 150.877C174.374 151.384 177.508 150.971 179.317 149.356Z" fill="#BEE0D8"/>
<path d="M223.953 167.257C228.247 170.767 237.158 166.968 243.855 158.774C250.553 150.579 252.501 141.091 248.207 137.581C243.913 134.071 235.002 137.87 228.305 146.064C221.607 154.259 219.659 163.747 223.953 167.257Z" fill="#FFE48F"/>
<path d="M222.384 175.52C216.95 174.413 210.831 181.922 208.718 192.293C206.605 202.663 209.297 211.968 214.731 213.076C220.165 214.183 226.284 206.674 228.397 196.303C230.51 185.932 227.818 176.627 222.384 175.52Z" fill="#FFE48F"/>
<path d="M233.909 176.979C232.498 183.903 237.116 190.69 244.224 192.139C251.332 193.588 258.238 189.149 259.649 182.225C261.06 175.301 256.442 168.514 249.334 167.065C242.226 165.616 235.32 170.055 233.909 176.979Z" fill="#FFE48F"/>
<path d="M572.342 205.671V273.065C570.02 275.536 566.613 278.419 562.12 281.714C557.702 284.934 551.899 287.78 544.71 290.251C537.596 292.647 528.91 293.845 518.651 293.845C509.591 293.845 501.354 292.422 493.94 289.577C486.602 286.731 480.274 282.425 474.958 276.66C469.716 270.819 465.71 263.555 462.939 254.869C460.168 246.108 458.783 235.736 458.783 223.755V195.899C458.783 184.068 460.093 173.771 462.714 165.01C465.41 156.174 469.304 148.836 474.396 142.995C479.488 137.154 485.553 132.811 492.592 129.965C499.706 127.12 507.719 125.697 516.629 125.697C528.91 125.697 538.982 127.756 546.844 131.875C554.782 135.993 560.773 142.096 564.816 150.184C568.935 158.271 571.406 168.193 572.229 179.949H540.442C539.918 173.06 538.757 167.669 536.96 163.775C535.238 159.881 532.804 157.11 529.659 155.463C526.514 153.74 522.433 152.879 517.416 152.879C513.073 152.879 509.291 153.666 506.071 155.238C502.851 156.736 500.155 159.207 497.984 162.651C495.812 166.096 494.202 170.514 493.154 175.906C492.106 181.297 491.581 187.887 491.581 195.674V223.755C491.581 231.468 492.18 238.058 493.379 243.524C494.577 248.991 496.336 253.446 498.658 256.891C501.054 260.335 504.049 262.844 507.644 264.416C511.313 265.914 515.619 266.663 520.561 266.663C524.53 266.663 527.712 266.251 530.108 265.427C532.505 264.603 534.414 263.742 535.837 262.844C537.334 261.87 538.57 261.121 539.543 260.597V230.495H516.068V205.671H572.342ZM596.154 128.056H648.609C659.542 128.056 668.865 129.928 676.578 133.672C684.291 137.416 690.206 142.957 694.325 150.296C698.443 157.634 700.503 166.695 700.503 177.478C700.503 186.314 699.304 193.877 696.908 200.167C694.512 206.383 691.105 211.587 686.687 215.78C682.269 219.899 676.99 223.194 670.849 225.665L660.852 231.618H618.282L618.17 204.323H647.711C652.204 204.323 655.91 203.35 658.831 201.403C661.826 199.381 664.035 196.573 665.458 192.979C666.955 189.31 667.704 185.041 667.704 180.174C667.704 175.007 667.03 170.589 665.682 166.92C664.409 163.176 662.35 160.33 659.505 158.383C656.734 156.361 653.102 155.35 648.609 155.35H629.065V291.599H596.154V128.056ZM670.4 291.599L640.41 218.701L674.893 218.588L705.557 290.026V291.599H670.4ZM838.323 197.135V224.429C838.323 235.961 836.9 246.07 834.055 254.756C831.284 263.368 827.315 270.594 822.149 276.435C817.057 282.201 810.879 286.544 803.615 289.464C796.427 292.385 788.452 293.845 779.69 293.845C770.929 293.845 762.917 292.385 755.653 289.464C748.465 286.544 742.249 282.201 737.008 276.435C731.841 270.594 727.835 263.368 724.989 254.756C722.144 246.07 720.721 235.961 720.721 224.429V197.135C720.721 185.303 722.106 174.97 724.877 166.133C727.647 157.223 731.654 149.809 736.895 143.893C742.137 137.903 748.352 133.41 755.541 130.415C762.73 127.345 770.705 125.809 779.466 125.809C788.227 125.809 796.202 127.345 803.391 130.415C810.579 133.41 816.795 137.903 822.036 143.893C827.278 149.809 831.284 157.223 834.055 166.133C836.9 174.97 838.323 185.303 838.323 197.135ZM805.637 224.429V196.91C805.637 189.122 805.076 182.495 803.952 177.029C802.829 171.488 801.144 166.957 798.898 163.438C796.651 159.918 793.918 157.335 790.698 155.687C787.478 154.04 783.734 153.216 779.466 153.216C775.198 153.216 771.416 154.04 768.121 155.687C764.901 157.335 762.168 159.918 759.922 163.438C757.75 166.957 756.103 171.488 754.979 177.029C753.931 182.495 753.407 189.122 753.407 196.91V224.429C753.407 231.917 753.968 238.32 755.092 243.636C756.215 248.953 757.9 253.296 760.146 256.666C762.393 260.036 765.126 262.544 768.346 264.192C771.641 265.764 775.422 266.55 779.69 266.55C783.884 266.55 787.591 265.764 790.81 264.192C794.105 262.544 796.838 260.036 799.01 256.666C801.182 253.296 802.829 248.953 803.952 243.636C805.076 238.32 805.637 231.917 805.637 224.429ZM940.2 237.122H972.886C972.437 249.402 969.966 259.774 965.473 268.235C960.98 276.622 954.578 282.987 946.266 287.33C938.029 291.673 928.069 293.845 916.388 293.845C907.327 293.845 899.277 292.347 892.238 289.352C885.199 286.282 879.209 281.789 874.267 275.873C869.324 269.958 865.58 262.657 863.034 253.97C860.563 245.209 859.328 235.137 859.328 223.755V196.011C859.328 184.629 860.638 174.558 863.259 165.797C865.955 157.035 869.774 149.697 874.716 143.781C879.733 137.791 885.761 133.298 892.8 130.302C899.914 127.232 907.926 125.697 916.837 125.697C928.743 125.697 938.703 127.944 946.715 132.437C954.727 136.929 960.905 143.482 965.248 152.093C969.666 160.63 972.325 171.076 973.223 183.431H940.425C940.2 175.644 939.302 169.541 937.729 165.123C936.232 160.63 933.835 157.485 930.541 155.687C927.246 153.815 922.678 152.879 916.837 152.879C912.494 152.879 908.75 153.666 905.605 155.238C902.46 156.736 899.876 159.169 897.854 162.539C895.833 165.909 894.335 170.327 893.362 175.793C892.463 181.26 892.014 187.924 892.014 195.787V223.755C892.014 231.468 892.426 238.058 893.249 243.524C894.073 248.916 895.383 253.334 897.181 256.778C898.978 260.223 901.411 262.731 904.482 264.304C907.627 265.876 911.595 266.663 916.388 266.663C921.929 266.663 926.385 265.839 929.754 264.192C933.199 262.544 935.745 259.586 937.392 255.318C939.04 251.05 939.976 244.984 940.2 237.122ZM1027.59 128.056V291.599H994.902V128.056H1027.59ZM1088.58 128.056V291.599H1055.67V128.056H1088.58ZM1139.8 197.584V224.766H1080.27V197.584H1139.8ZM1146.09 128.056V155.35H1080.27V128.056H1146.09ZM1189.56 128.056L1214.49 201.74L1239.2 128.056H1275.04L1231.01 232.18V291.599H1197.87V232.18L1153.84 128.056H1189.56Z" fill="white"/>
</svg>
