<?xml version="1.0" encoding="utf-8"?>
<!-- Generator: Adobe Illustrator 27.5.0, SVG Export Plug-In . SVG Version: 6.00 Build 0)  -->
<svg version="1.1" xmlns="http://www.w3.org/2000/svg" xmlns:xlink="http://www.w3.org/1999/xlink" x="0px" y="0px"
	 viewBox="0 0 750 500" style="enable-background:new 0 0 750 500;" xml:space="preserve">
<g id="BACKGROUND">
	<rect style="fill:#FFE8E5;" width="750" height="500"/>
	<g>
		<rect x="58.505" y="382.044" style="fill:#FFBDC8;" width="637.343" height="8.527"/>
		<g>
			<path style="fill:#FFBDC8;" d="M528.706,338c-2.01-0.125-4.14,0.23-6.146,0.393c-1.968,0.16-3.938,0.307-5.909,0.434
				c-4.023,0.259-8.051,0.444-12.082,0.554c-0.6,0.016-1.199,0.022-1.799,0.036c-0.011-0.075-0.017-0.152-0.029-0.227
				c-0.036-0.231-0.404-0.216-0.452,0c-0.017,0.078-0.026,0.159-0.042,0.237c-3.174,0.068-6.349,0.109-9.524,0.091
				c-4.11-0.022-8.225-0.226-12.333-0.131c-0.186,0.004-0.175,0.26,0,0.281c7.131,0.873,14.477,0.838,21.689,0.706
				c-0.38,2.739-0.107,5.674,0.023,8.386c0.078,1.617,0.201,3.228,0.366,4.838c0.132,1.298,0.253,2.583,0.554,3.838
				c-3.306,0.033-6.612,0.06-9.917,0.113c-8.086,0.131-16.166,0.284-24.247,0.554c-0.401,0.013-0.404,0.62,0,0.625
				c8.083,0.098,16.163,0.078,24.247,0.037c4-0.02,7.999-0.076,11.999-0.119c2-0.021,4-0.042,5.999-0.098
				c1.906-0.053,3.966,0.034,5.841-0.313c0.324-0.06,0.332-0.609,0-0.663c-1.805-0.293-3.762-0.168-5.591-0.19
				c-1.999-0.024-4,0.006-5.999,0.027c-0.61,0.007-1.22,0.015-1.83,0.021c0.014-1.339-0.133-2.673-0.221-4.018
				c-0.105-1.611-0.191-3.225-0.256-4.839c-0.109-2.702,0.104-5.507-0.159-8.215c0.643-0.012,1.287-0.024,1.928-0.037
				c4.029-0.081,8.057-0.236,12.081-0.465c1.97-0.112,3.941-0.239,5.909-0.39c1.969-0.151,4.092-0.184,6.006-0.683
				C529.263,338.666,529.143,338.028,528.706,338z"/>
			<path style="fill:#FFBDC8;" d="M696.34,293.84c-9.687-0.34-19.449,0.076-29.14,0.262l-14.445,0.277
				c-4.876,0.094-9.84-0.012-14.694,0.468c-0.476,0.047-0.489,0.72,0,0.75c4.422,0.274,8.913,0.059,13.35-0.044
				c0.107,2.769,0.551,5.568,0.876,8.311c0.178,1.509,0.357,3.018,0.535,4.527c0.142,1.198,0.26,2.424,0.56,3.599
				c-4.227,0.132-8.454,0.306-12.67,0.429c-3.108,0.09-6.214,0.19-9.32,0.296c-0.03-0.187-0.052-0.375-0.085-0.562
				c-0.069-0.384-0.649-0.276-0.66,0.089c-0.005,0.166,0.001,0.332-0.002,0.498c-5.423,0.188-10.845,0.406-16.266,0.691
				c-0.169,0.009-0.172,0.266,0,0.266c5.423-0.017,10.843-0.102,16.264-0.217c0.01,2.134,0.184,4.266,0.324,6.394
				c0.084,1.273,0.162,2.545,0.271,3.816c0.098,1.142,0.06,2.552,0.473,3.626c0.127,0.33,0.661,0.41,0.753,0
				c0.254-1.13,0.024-2.476-0.047-3.626c-0.082-1.322-0.197-2.642-0.305-3.963c-0.171-2.091-0.313-4.188-0.607-6.266
				c3.068-0.067,6.137-0.14,9.206-0.222c8.764-0.234,17.588-0.247,26.333-0.88c0.338-0.025,0.346-0.525,0-0.531
				c-4.268-0.071-8.548,0.008-12.826,0.136c0.015-1.311-0.196-2.628-0.365-3.921c-0.197-1.509-0.394-3.018-0.591-4.527
				c-0.345-2.643-0.596-5.362-1.143-7.98c0.128-0.003,0.258-0.007,0.386-0.01c4.898-0.087,9.796-0.174,14.694-0.261
				c6.732-0.12,13.501-0.135,20.248-0.364c-0.044,0.146-0.089,0.292-0.102,0.448c-0.033,0.391,0.001,0.805,0.009,1.198
				c0.014,0.684,0.036,1.369,0.062,2.053c0.06,1.54,0.142,3.08,0.213,4.619c0.136,2.96,0.199,5.918,0.703,8.84
				c0.086,0.5,0.817,0.344,0.844-0.114c0.178-2.969-0.102-5.931-0.295-8.897c-0.097-1.483-0.183-2.967-0.291-4.448
				c-0.05-0.685-0.105-1.37-0.167-2.053c-0.031-0.343-0.069-0.685-0.106-1.027c-0.031-0.28-0.106-0.451-0.181-0.642
				c2.739-0.099,5.475-0.232,8.202-0.429C696.728,294.421,696.736,293.854,696.34,293.84z"/>
			<g>
				<path style="fill:#FFBDC8;" d="M423.558,74.22c-9.212-0.228-18.442-0.122-27.656-0.118c-9.26,0.004-18.52,0-27.78,0.024
					c-5.191,0.014-10.381,0.037-15.572,0.094c-0.221,0.002-0.222,0.341,0,0.344c9.218,0.102,18.437,0.108,27.655,0.112
					c9.26,0.004,18.52,0.017,27.78-0.003c5.189-0.011,10.385,0.019,15.572-0.109C423.779,74.558,423.78,74.225,423.558,74.22z"/>
				<path style="fill:#FFBDC8;" d="M444.768,93.46c-3.705-0.102-7.412-0.263-11.118-0.285c-3.706-0.021-7.412-0.025-11.118-0.012
					c-7.329,0.026-14.657,0.076-21.986,0.133c-0.988,0.008-1.975,0.024-2.963,0.039c0.137-2.855,0.205-5.711,0.191-8.57
					c-0.007-1.534-0.002-3.068-0.024-4.602c-0.011-0.788-0.031-1.576-0.058-2.363c-0.028-0.844-0.171-1.655-0.245-2.488
					c-0.02-0.221-0.324-0.221-0.344,0c-0.071,0.791-0.214,1.561-0.241,2.363c-0.026,0.788-0.047,1.575-0.06,2.363
					c-0.025,1.575-0.018,3.151-0.026,4.726c-0.014,2.862,0.054,5.72,0.191,8.578c-0.889,0.013-1.779,0.025-2.669,0.035
					c-2.069,0.023-4.19-0.053-6.246,0.202c-0.225,0.028-0.226,0.324,0,0.352c1.851,0.229,3.758,0.174,5.621,0.195
					c1.109,0.012,2.217,0.03,3.325,0.048c0.001,0.014,0.001,0.028,0.002,0.043c0.019,0.352,0.528,0.352,0.547,0
					c0.001-0.012,0.001-0.023,0.001-0.035c0.54,0.008,1.081,0.019,1.621,0.023c3.706,0.029,7.412,0.074,11.118,0.09
					c7.328,0.032,14.658,0.092,21.986,0.05c4.166-0.024,8.327-0.178,12.492-0.292C445.15,94.044,445.151,93.471,444.768,93.46z"/>
			</g>
			<path style="fill:#FFBDC8;" d="M115.643,267.995c-4.953-0.43-9.939-0.383-14.91-0.402c-3.695-0.014-7.389-0.005-11.083,0.004
				c0.277-1.535,0.293-3.158,0.372-4.695c0.095-1.868,0.194-3.736,0.286-5.605c0.09-1.826,0.166-3.653,0.249-5.48
				c0.042-0.913,0.083-1.827,0.124-2.74c0.023-0.498,0.05-0.996,0.068-1.495c0.001-0.016-0.001-0.028-0.001-0.044
				c1.035-0.009,2.071-0.013,3.107-0.024c3.575-0.038,7.149-0.096,10.723-0.211c0.322-0.01,0.322-0.49,0-0.5
				c-4.67-0.149-9.344-0.218-14.018-0.263c-0.023-0.055-0.043-0.107-0.071-0.168c-0.135-0.294-0.583-0.256-0.729,0
				c-0.032,0.057-0.055,0.107-0.081,0.16c-7.752-0.067-15.506-0.051-23.254-0.074c-1.745-0.005-3.492-0.013-5.237,0.012
				c-1.825,0.027-3.667,0.012-5.486,0.164c-0.537,0.045-0.538,0.791,0,0.836c3.177,0.267,6.413,0.173,9.6,0.179
				c3.159,0.006,6.317-0.017,9.476-0.026c4.88-0.014,9.759-0.038,14.639-0.076c-0.001,0.012-0.002,0.021-0.003,0.034
				c-0.022,0.456-0.036,0.913-0.055,1.37c-0.036,0.913-0.073,1.827-0.109,2.74c-0.075,1.868-0.155,3.736-0.223,5.605
				c-0.067,1.827-0.125,3.653-0.188,5.48c-0.054,1.578-0.176,3.23-0.024,4.82c-0.998,0.003-1.995-0.004-2.993,0.001
				c-1.408,0.008-2.817,0.015-4.225,0.023c-1.405,0.007-2.832-0.065-4.225,0.12c-0.671,0.089-0.673,0.958,0,1.047
				c1.233,0.164,2.485,0.111,3.728,0.117c1.243,0.007,2.485,0.013,3.728,0.02c2.485,0.013,4.97,0.031,7.455,0.027
				c4.97-0.009,9.941,0.016,14.91-0.065c2.829-0.046,5.631-0.108,8.449-0.353C115.989,268.504,115.99,268.025,115.643,267.995z"/>
			<path style="fill:#FFBDC8;" d="M115.643,355.465c-9.324-0.14-18.648-0.208-27.973-0.127c-2.66,0.023-5.337-0.037-7.992,0.146
				c-0.497,0.034-0.498,0.739,0,0.773c2.324,0.16,4.664,0.117,6.993,0.137c2.332,0.02,4.661,0.065,6.993,0.061
				c4.662-0.008,9.325-0.022,13.986-0.072c2.664-0.029,5.328-0.066,7.992-0.106C116.166,356.269,116.167,355.473,115.643,355.465z"
				/>
			<path style="fill:#FFBDC8;" d="M690.618,146.698c-7.302-0.176-14.599-0.36-21.904-0.309c-3.649,0.025-7.305-0.008-10.952,0.106
				c-1.682,0.053-3.365,0.094-5.049,0.128c0.463-4.602,0.223-9.3,0.211-13.918c-0.012-4.4,0.013-8.812-0.262-13.204
				c2.356-0.027,4.707-0.103,7.063-0.184c0.573-0.02,0.574-0.871,0-0.891c-2.398-0.082-4.798-0.136-7.197-0.173
				c-0.097-0.106-0.261-0.108-0.359-0.003c-6.804-0.098-13.613-0.046-20.417,0.02c-2.672,0.026-5.335,0.039-7.992,0.328
				c-0.351,0.038-0.352,0.509,0,0.547c4.624,0.502,9.338,0.348,13.986,0.363c4.662,0.015,9.324,0.028,13.986,0.008
				c0.1,0,0.2-0.005,0.299-0.005c-0.274,4.388-0.249,8.796-0.261,13.193c-0.012,4.623-0.253,9.326,0.212,13.932
				c-1.725,0.031-3.449,0.053-5.173,0.059c-4.148,0.016-8.297,0.032-12.445,0.048c-0.327,0.001-0.327,0.507,0,0.508
				c7.302,0.028,14.604,0.019,21.904,0.195c7.299,0.176,14.603,0.205,21.904,0.131c4.149-0.042,8.297-0.18,12.445-0.279
				C691.005,147.29,691.006,146.707,690.618,146.698z"/>
		</g>
		<g>
			<rect x="345.619" y="108.825" style="fill:#FFBDC8;" width="290.23" height="155.904"/>
			<rect x="350" y="112.41" style="fill:#FFFFFF;" width="281.46" height="148.74"/>
			<g style="opacity:0.13;">
				<path style="fill:#FFBDC8;" d="M478.36,112.41l-71.2,148.74H350v-7.01c21.64-40.93,56.24-106.37,74.94-141.73H478.36z"/>
				<path style="fill:#FFBDC8;" d="M546.32,112.41l-67.34,148.74h-11.8c16.09-39.25,48.66-117.36,61.76-148.74H546.32z"/>
				<polygon style="fill:#FFBDC8;" points="598,112.41 554.76,261.15 510.46,261.15 559.4,112.41 				"/>
			</g>
			<path style="fill:#959C6A;" d="M635.713,246.151c-0.232-1.103-0.601-2.226-1.386-3.036c-1.975-2.038-5.687-1.021-7.365,1.267
				c-1.37,1.869-1.758,4.221-1.938,6.565c-0.26-1.498-1.476-2.865-3.008-3.062c-0.529-0.068-1.056,0.011-1.548,0.197
				c1.54-3.592,1.263-8.004-1.085-11.156c-3.216-4.318-9.913-5.583-14.424-2.643c-2.292,1.494-3.807,3.971-4.367,6.641
				c-2.352-4.357-7.23-7.501-12.198-6.774c-5.26,0.77-9.198,5.666-9.908,10.842c-0.455-0.627-0.992-1.195-1.591-1.672
				c-2.479-1.971-5.76-2.642-8.925-2.749c-4.019-0.136-8.377,0.71-11.092,3.677c-1.149,1.256-1.809,2.966-1.932,4.674
				c-5.557-1.504-11.964,0.77-15.271,5.495c2.831-3.684-0.768-9.636-5.389-10.11c-4.622-0.474-8.873,3.018-10.974,7.161
				c1.948-5.469,1.273-11.97-2.34-16.514c-3.613-4.544-10.258-6.653-15.611-4.406c-3.363,1.412-5.857,4.617-6.68,8.128
				c-1.953-3.549-6.44-6.056-10.446-4.737c-6.175,2.033-8.477,10.71-4.926,16.156c-1.898-2.413-4.57-4.592-7.639-4.522
				c-1.449,0.033-2.854,0.82-3.789,1.924c-0.478-5.177-5.49-10.123-10.931-9.68c-6.234,0.507-10.843,7.001-10.441,13.197
				c-0.816-2.8-3.034-5.202-5.827-6.086c-3.494-1.107-7.623,0.241-9.791,3.195c1.723-3.898-1.027-9.058-5.223-9.802
				c-4.196-0.744-8.552,3.157-8.274,7.41c0.016-3.81-0.352-7.733-2.086-11.125c-1.734-3.393-5.079-6.168-8.886-6.311
				c-4.604-0.173-8.642,3.533-10.334,7.818c-1.691,4.286-1.539,9.047-1.312,13.649c-0.9-2.511-1.843-5.094-3.644-7.062
				c-1.801-1.968-4.698-3.184-7.194-2.242c-0.844,0.319-1.545,0.947-2.038,1.709c-0.661-1.222-1.764-2.195-3.132-2.491
				c-3.01-0.651-6.231,2.195-5.955,5.262c-0.479-4.253-3.305-8.588-7.527-9.29c-4.222-0.702-8.753,4.023-6.814,7.838
				c-1.558-3.103-3.208-6.264-5.806-8.568c-2.597-2.304-6.381-3.597-9.619-2.343c-3.565,1.38-5.453,5.373-5.914,9.167
				c-0.628,5.175,0.85,10.56,3.966,14.731c-0.979-0.415-2.29-0.28-3.036,0.533c-1.24,1.35-0.981,3.588,0.084,5.08
				c1.065,1.492,2.733,2.416,4.344,3.29l284.869,0.838C634.22,259.863,637.145,252.968,635.713,246.151z"/>
			<rect x="339.716" y="263.761" style="fill:#FFBDC8;" width="302.035" height="10.186"/>
			<rect x="336.539" y="258.668" style="fill:#FF7088;" width="308.39" height="10.186"/>
		</g>
		<g>
			<path style="fill:#FFBDC8;" d="M113.877,152.804v237.768h177.971V152.804c0-34.504-27.971-62.474-62.474-62.474h-53.022
				C141.848,90.329,113.877,118.3,113.877,152.804z"/>
			<g>
				<path style="fill:#FFFFFF;" d="M285.64,159.84v230.73H120.08V159.84c0-29.15,19.97-53.64,46.98-60.53
					c4.96-1.27,10.15-1.94,15.5-1.94h40.61c7.53,0,14.75,1.33,21.43,3.77c4.95,1.81,9.61,4.23,13.88,7.16
					c3.55,2.43,6.83,5.22,9.8,8.32c9.05,9.44,15.16,21.73,16.87,35.38C285.47,154.57,285.64,157.19,285.64,159.84z"/>
				<g style="opacity:0.13;">
					<path style="fill:#FFBDC8;" d="M211.73,97.37l-67.74,293.2h-23.91v-87.92l46.98-203.34c4.96-1.27,10.15-1.94,15.5-1.94H211.73z
						"/>
					<path style="fill:#FFBDC8;" d="M258.48,108.3l-65.21,282.27h-15.53l66.86-289.43C249.55,102.95,254.21,105.37,258.48,108.3z"/>
					<path style="fill:#FFBDC8;" d="M285.15,152l-55.11,238.57h-25.05l63.29-273.95C277.33,126.06,283.44,138.35,285.15,152z"/>
				</g>
				<rect x="201.27" y="97.37" style="opacity:0.6;fill:#F3DCFF;" width="3.19" height="293.2"/>
				<g>
					<rect x="186.7" y="234.946" style="fill:#FFBDC8;" width="10.112" height="34.593"/>
					<rect x="208.908" y="234.946" style="fill:#FFBDC8;" width="10.112" height="34.593"/>
				</g>
			</g>
			<g>
				<g>
					<circle style="fill:#F3DCFF;" cx="123.78" cy="120.165" r="20.017"/>
					<circle style="fill:#EF98B1;" cx="163.815" cy="120.165" r="20.017"/>
					<circle style="fill:#F3DCFF;" cx="203.85" cy="120.165" r="20.018"/>
					<circle style="fill:#EF98B1;" cx="243.885" cy="120.165" r="20.017"/>
					<circle style="fill:#F3DCFF;" cx="283.429" cy="120.165" r="20.017"/>
				</g>
				<g>
					<rect x="103.762" y="77.294" style="fill:#FFFFFF;" width="199.684" height="43.187"/>
					<g>
						<g>
							<rect x="143.797" y="77.294" style="fill:#FFBDC8;" width="40.035" height="43.187"/>
							<rect x="223.867" y="77.294" style="fill:#FFBDC8;" width="40.035" height="43.187"/>
						</g>
					</g>
				</g>
				<path style="fill:#FFBDC8;" d="M304.29,82.322H102.918c-2.072,0-3.751-1.68-3.751-3.751l0,0c0-2.072,1.68-3.751,3.751-3.751
					H304.29c2.072,0,3.751,1.68,3.751,3.751l0,0C308.042,80.642,306.362,82.322,304.29,82.322z"/>
			</g>
			<g>
				<path style="opacity:0.6;fill:#F3DCFF;" d="M184.858,160.73c-1.731-1.421-3.977-2.381-5.941-3.449
					c-1.997-1.086-3.995-2.173-5.992-3.259c-2.055-1.117-4.105-2.244-6.173-3.335c-1.673-0.883-3.352-1.833-5.091-2.6
					c0.045-0.122,0.073-0.251,0.073-0.388c0-0.625-0.507-1.132-1.132-1.132c-0.625,0-1.132,0.507-1.132,1.132
					c0,0.16,0.034,0.312,0.094,0.45c-1.689,0.756-3.321,1.68-4.949,2.539c-2.068,1.092-4.118,2.218-6.173,3.335
					c-1.997,1.086-3.995,2.173-5.992,3.259c-1.963,1.068-4.21,2.028-5.941,3.449c-0.159,0.131,0.012,0.397,0.197,0.339
					c2.022-0.631,3.947-1.906,5.808-2.906c2.061-1.107,4.121-2.213,6.182-3.32c2.003-1.076,4.013-2.14,6.003-3.24
					c1.746-0.966,3.562-1.895,5.244-2.988c0.186,0.133,0.412,0.214,0.658,0.214c0.28,0,0.533-0.105,0.73-0.274
					c1.707,1.119,3.558,2.064,5.336,3.047c1.989,1.101,4,2.165,6.003,3.24c2.061,1.107,4.121,2.213,6.182,3.32
					c1.861,1,3.786,2.274,5.808,2.906C184.846,161.128,185.018,160.861,184.858,160.73z"/>
				<path style="fill:#FFBDC8;" d="M190.555,227.871h-59.743c-1.599,0-2.896-1.296-2.896-2.896v-62.191
					c0-1.599,1.296-2.896,2.896-2.896h59.743c1.599,0,2.896,1.296,2.896,2.896v62.191
					C193.451,226.574,192.154,227.871,190.555,227.871z"/>
				<g>
					<path style="fill:#FFFFFF;" d="M139.705,185.816c2.645-2.449,2.888-7.384-0.394-9.445c-1.297-0.814-2.892-1.04-4.311-0.569
						c-0.127-0.781-0.236-1.564-0.301-2.353c-0.068-0.823-0.074-1.661-0.138-2.487c0.338,0.058,0.689,0.077,0.983,0.113
						c0.748,0.092,1.501,0.146,2.252,0.21c0.751,0.065,1.503,0.129,2.254,0.194c0.734,0.063,1.646,0.285,2.349,0.042
						c0.714-0.247,0.575-1.194,0.001-1.489c-0.357-0.183-0.777-0.157-1.17-0.181c-0.377-0.022-0.754-0.043-1.131-0.065
						c-0.754-0.043-1.508-0.086-2.262-0.129c-0.755-0.043-1.509-0.091-2.265-0.107c-0.439-0.009-0.952-0.07-1.4,0.025
						c-0.29-0.145-0.708,0.012-0.812,0.405c-0.299,1.135-0.265,2.385-0.214,3.554c0.052,1.211,0.182,2.416,0.377,3.612
						c0.107,0.657,0.81,0.896,1.341,0.557c1.207-0.769,2.855-0.52,3.91,0.402c1.223,1.07,1.494,2.957,1.008,4.448
						c-0.466,1.43-1.793,2.875-3.41,2.826c-0.634-0.019-1.279-0.305-1.73-0.749c-0.237-0.233-0.38-0.495-0.534-0.783
						c-0.084-0.157-0.161-0.317-0.28-0.451c-0.055-0.066-0.114-0.128-0.177-0.187c-0.19-0.053-0.216-0.096-0.08-0.127
						c-0.114-0.332-0.652-0.336-0.767-0.001c-0.122,0.356-0.337,0.6-0.318,1.009c0.02,0.436,0.232,0.844,0.466,1.204
						c0.433,0.666,1.086,1.187,1.803,1.518C136.428,187.588,138.397,187.027,139.705,185.816z"/>
					<g>
						<path style="fill:#FFFFFF;" d="M154.314,173.944c0.418-0.821,0.614-1.865,0.206-2.73c-0.427-0.907-1.324-1.407-2.253-1.673
							c-1.242-0.357-2.536-0.604-3.821-0.374c-0.371,0.066-0.524,0.668-0.103,0.794c0.018,0.006,0.037,0.008,0.055,0.014
							c-0.011,0.028-0.026,0.053-0.031,0.084c-0.249,1.357-0.042,2.841,0.005,4.214c0.048,1.405,0.124,2.808,0.193,4.211
							c0.069,1.403,0.137,2.806,0.219,4.208l0.118,2.03c0.043,0.743-0.01,1.441,0.4,2.083c0.335,0.524,1.106,0.322,1.336-0.171
							c0.311-0.667,0.124-1.446,0.07-2.158c-0.051-0.675-0.102-1.35-0.153-2.025c-0.105-1.398-0.224-2.794-0.342-4.191
							c-0.054-0.642-0.114-1.283-0.169-1.924c0.697,0.268,1.558,0.18,2.199-0.156C153.165,175.696,153.848,174.86,154.314,173.944z
							 M153.288,172.265c-0.005,0.057-0.011,0.114-0.02,0.17c0.003-0.017-0.051,0.246-0.025,0.147
							c-0.059,0.228-0.161,0.451-0.271,0.658c-0.056,0.106-0.167,0.275-0.278,0.425c-0.135,0.183-0.298,0.387-0.447,0.534
							c-0.317,0.313-0.685,0.549-1.068,0.609c-0.225,0.035-0.32,0.046-0.545-0.003c0.061,0.022,0.042,0.016-0.058-0.018
							c-0.059-0.019-0.119-0.038-0.179-0.056c-0.115-0.042-0.225-0.095-0.336-0.148c-0.06-0.028-0.117-0.036-0.174-0.047
							c-0.015-0.155-0.025-0.31-0.041-0.465c-0.127-1.273-0.155-2.623-0.501-3.863c0.235,0.056,0.467,0.127,0.708,0.176
							c0.538,0.108,1.079,0.22,1.603,0.381c0.73,0.224,1.627,0.59,1.637,1.434C153.292,172.152,153.29,172.174,153.288,172.265z"/>
						<path style="fill:#FFFFFF;" d="M155.888,186.305c0.822,0.049,1.643,0.099,2.465,0.148c0.716,0.043,1.49,0.181,2.103-0.26
							c0.33-0.238,0.277-0.685,0.007-0.934c-0.531-0.491-1.357-0.434-2.038-0.478c-0.527-0.033-1.053-0.067-1.58-0.1
							c0.056-2.357,0.063-4.716,0.09-7.074c0.007-0.575,0.004-1.151,0.005-1.726c0.019,0.009,0.037,0.019,0.054,0.03
							c-0.04-0.025-0.012-0.004,0.011,0.01c0.166,0.107,0.356,0.131,0.548,0.158c0.313,0.045,0.628,0.079,0.944,0.066
							c0.579-0.024,1.199-0.07,1.733-0.306c0.179-0.079,0.337-0.254,0.35-0.458c0.01-0.168-0.025-0.277-0.112-0.417
							c-0.112-0.18-0.34-0.232-0.534-0.222c-0.528,0.027-1.045,0.159-1.576,0.193c-0.254,0.016-0.506,0.056-0.76,0.074
							c-0.158,0.011-0.325-0.001-0.476,0.057c-0.059,0.023-0.12,0.052-0.179,0.079c0-0.484,0.004-0.969,0.005-1.453
							c0.002-1.184,0.033-2.406-0.128-3.583c0.034,0.007,0.067,0.015,0.101,0.021c0.271,0.049,0.554,0.083,0.828,0.104
							c0.278,0.022,0.556,0.037,0.834,0.055c0.329,0.022,0.688,0.091,0.997-0.054c0.177-0.083,0.305-0.234,0.33-0.432
							c0.021-0.168-0.048-0.402-0.204-0.494c-0.181-0.106-0.345-0.177-0.557-0.183l-0.419-0.012
							c-0.279-0.008-0.559-0.019-0.838-0.025c-0.304-0.007-0.614,0.003-0.918,0.022c-0.273,0.017-0.613,0.053-0.829,0.24
							c-0.112,0.096-0.177,0.299-0.058,0.422c0.01,0.011,0.023,0.017,0.034,0.027c-0.024,0.038-0.042,0.081-0.052,0.13
							c-0.271,1.266-0.299,2.604-0.371,3.895c-0.07,1.249-0.144,2.498-0.201,3.747c-0.118,2.596-0.27,5.194-0.34,7.792
							C155.145,185.796,155.398,186.276,155.888,186.305z"/>
						<path style="fill:#FFFFFF;" d="M172.721,182.325c-0.105-1.398-0.224-2.794-0.342-4.191c-0.054-0.642-0.114-1.283-0.169-1.924
							c0.697,0.268,1.558,0.18,2.199-0.156c0.92-0.483,1.603-1.319,2.069-2.235c0.418-0.821,0.614-1.865,0.206-2.73
							c-0.427-0.907-1.324-1.407-2.253-1.673c-1.242-0.357-2.536-0.604-3.821-0.374c-0.371,0.066-0.524,0.668-0.103,0.794
							c0.018,0.005,0.037,0.008,0.055,0.014c-0.011,0.028-0.026,0.053-0.031,0.084c-0.249,1.357-0.042,2.841,0.005,4.214
							c0.048,1.404,0.124,2.808,0.193,4.211c0.069,1.403,0.137,2.806,0.219,4.208l0.118,2.03c0.043,0.743-0.01,1.441,0.4,2.083
							c0.335,0.524,1.106,0.322,1.336-0.171c0.311-0.667,0.124-1.446,0.07-2.158C172.823,183.675,172.772,183,172.721,182.325z
							 M172.012,173.946c-0.127-1.273-0.155-2.623-0.501-3.862c0.235,0.056,0.467,0.127,0.708,0.176
							c0.538,0.108,1.079,0.22,1.603,0.381c0.73,0.224,1.627,0.59,1.637,1.434c-0.002-0.047-0.004-0.025-0.006,0.066
							c-0.005,0.057-0.011,0.114-0.02,0.17c0.003-0.017-0.051,0.246-0.025,0.147c-0.059,0.228-0.161,0.451-0.271,0.658
							c-0.056,0.106-0.167,0.275-0.278,0.425c-0.135,0.183-0.298,0.387-0.447,0.534c-0.317,0.313-0.686,0.549-1.068,0.609
							c-0.225,0.035-0.32,0.046-0.545-0.003c0.061,0.022,0.042,0.016-0.057-0.018c-0.06-0.019-0.119-0.038-0.179-0.056
							c-0.116-0.042-0.225-0.095-0.336-0.148c-0.06-0.028-0.117-0.036-0.174-0.047C172.038,174.256,172.027,174.101,172.012,173.946
							z"/>
						<path style="fill:#FFFFFF;" d="M178.053,186.18c0.822,0.049,1.643,0.099,2.465,0.148c0.716,0.043,1.49,0.182,2.103-0.26
							c0.33-0.238,0.277-0.685,0.007-0.934c-0.531-0.491-1.357-0.434-2.038-0.477c-0.527-0.033-1.053-0.067-1.58-0.1
							c0.096,0.006,0.135-11.475,0.101-14.71c-0.006-0.611-0.296-0.773-0.396-0.78c-0.484-0.031-0.519,0.664-0.545,1.122
							c-0.064,1.17-0.241,2.339-0.307,3.512c-0.07,1.249-0.144,2.498-0.201,3.747c-0.118,2.596-0.27,5.194-0.34,7.792
							C177.31,185.671,177.563,186.15,178.053,186.18z"/>
						<path style="fill:#FFFFFF;" d="M184.375,186.539c0.822,0.049,1.643,0.099,2.465,0.148c0.716,0.043,1.49,0.181,2.102-0.26
							c0.33-0.238,0.277-0.685,0.007-0.934c-0.531-0.491-1.357-0.434-2.038-0.478c-0.527-0.033-1.053-0.067-1.58-0.1
							c0.056-2.357,0.063-4.716,0.09-7.074c0.007-0.575,0.004-1.151,0.005-1.726c0.019,0.009,0.037,0.019,0.054,0.03
							c-0.04-0.025-0.012-0.004,0.011,0.01c0.166,0.107,0.356,0.131,0.548,0.158c0.313,0.045,0.628,0.079,0.944,0.066
							c0.579-0.024,1.199-0.07,1.733-0.306c0.179-0.079,0.337-0.254,0.35-0.458c0.01-0.168-0.025-0.277-0.112-0.417
							c-0.112-0.18-0.34-0.232-0.534-0.222c-0.528,0.027-1.045,0.159-1.576,0.193c-0.254,0.016-0.506,0.057-0.76,0.074
							c-0.158,0.011-0.325-0.001-0.476,0.057c-0.059,0.023-0.12,0.052-0.179,0.079c0-0.484,0.004-0.969,0.005-1.453
							c0.002-1.185,0.033-2.406-0.128-3.583c0.034,0.007,0.067,0.015,0.101,0.021c0.271,0.049,0.554,0.083,0.828,0.104
							c0.278,0.022,0.556,0.037,0.835,0.055c0.329,0.022,0.688,0.091,0.997-0.054c0.177-0.083,0.305-0.234,0.33-0.432
							c0.021-0.168-0.048-0.402-0.204-0.493c-0.18-0.106-0.345-0.177-0.557-0.183l-0.419-0.012
							c-0.279-0.008-0.559-0.019-0.838-0.025c-0.304-0.007-0.614,0.003-0.918,0.022c-0.273,0.016-0.613,0.053-0.829,0.24
							c-0.112,0.097-0.177,0.299-0.058,0.422c0.01,0.011,0.023,0.017,0.034,0.027c-0.024,0.038-0.042,0.081-0.053,0.13
							c-0.271,1.266-0.299,2.604-0.371,3.895c-0.07,1.249-0.144,2.498-0.201,3.747c-0.118,2.597-0.27,5.194-0.34,7.792
							C183.633,186.031,183.885,186.51,184.375,186.539z"/>
						<path style="fill:#FFFFFF;" d="M163.614,186.747c2.96,1.209,4.296-2.427,4.743-4.61c0.614-3.002,0.447-6.223-0.018-9.235
							c-0.211-1.366-0.711-2.919-2.102-3.492c-1.142-0.471-2.589-0.163-3.087,1.051c-0.118,0.288-0.018,0.569,0.17,0.764
							c-1.252,2.368-1.835,5.24-2.022,7.848C161.125,181.482,160.847,185.617,163.614,186.747z M162.845,178.318
							c0.084-1.291,0.246-2.599,0.509-3.866c0.215-1.032,0.531-2.035,0.816-3.047c0.085-0.048,0.164-0.114,0.228-0.215
							c0.448-0.703,1.384-0.467,1.822,0.133c0.609,0.834,0.62,2.066,0.719,3.052c0.233,2.339,0.302,4.71-0.122,7.032
							c-0.206,1.13-1.155,5.193-3.034,3.417c-0.768-0.726-0.833-1.949-0.913-2.938C162.775,180.7,162.767,179.506,162.845,178.318z"
							/>
					</g>
					<g>
						<path style="fill:#FFFFFF;" d="M145.88,217.64c-1.607-0.637-3.575-0.646-5.286-0.755c-1.101-0.07-2.202-0.098-3.304-0.108
							c0.174-3.81,0.206-7.627,0.048-11.438c-0.184-4.411-0.328-8.985-1.227-13.318l-0.017,0.014
							c-0.153-1.115-2.068-1.295-2.112-0.002c-0.148,4.356,0.178,8.735,0.13,13.097c-0.048,4.39-0.166,8.779-0.377,13.164
							c-0.057,1.195,0.782,2,1.967,1.946c1.641-0.075,3.279-0.079,4.919,0.03c1.605,0.107,3.264,0.509,4.866,0.402
							C147.08,220.565,147.291,218.199,145.88,217.64z"/>
						<path style="fill:#FFFFFF;" d="M149.902,205.091c-0.164-2.319-0.305-4.642-0.428-6.964c-0.062-1.16-0.114-2.32-0.157-3.48
							c-0.04-1.068,0.03-2.005-0.782-2.773c-0.229-0.217-0.715-0.221-0.951-0.007c-0.832,0.757-0.778,1.721-0.818,2.794
							c-0.046,1.238-0.082,2.476-0.107,3.714c-0.047,2.308-0.038,4.614,0.016,6.922c0.113,4.827,0.48,9.631,0.989,14.432
							c0.133,1.255,1.588,1.887,2.634,1.289c0.68-0.389,0.962-1.103,0.859-1.782c0.008,0.005,0.017,0.01,0.025,0.014
							C150.634,214.542,150.236,209.816,149.902,205.091z"/>
						<path style="fill:#FFFFFF;" d="M176.592,205.692c-0.164-2.32-0.305-4.642-0.428-6.964c-0.062-1.16-0.114-2.32-0.157-3.48
							c-0.04-1.068,0.03-2.005-0.782-2.773c-0.229-0.217-0.715-0.221-0.951-0.007c-0.832,0.757-0.778,1.721-0.818,2.794
							c-0.046,1.238-0.082,2.476-0.107,3.714c-0.047,2.308-0.038,4.614,0.016,6.922c0.113,4.827,0.48,9.631,0.989,14.432
							c0.133,1.255,1.588,1.887,2.634,1.288c0.68-0.389,0.962-1.103,0.859-1.782c0.008,0.005,0.017,0.01,0.025,0.014
							C177.325,215.143,176.927,210.418,176.592,205.692z"/>
						<path style="fill:#FFFFFF;" d="M190.217,192.874c-0.108-0.791-0.797-1.193-1.536-1.168c-1.903,0.064-3.805,0.124-5.706,0.229
							c-0.932,0.051-1.868,0.083-2.798,0.165c-0.874,0.077-2.346-0.035-2.739,0.919l0.016,0.007
							c-0.091,0.199-0.115,0.424-0.017,0.63c0.463,0.966,1.837,0.778,2.752,0.81c0.964,0.034,1.931,0.015,2.895,0.017
							c0.082,0,0.164-0.003,0.245-0.003c-0.013,0.247-0.017,0.502-0.027,0.764c-0.046,1.238-0.082,2.476-0.107,3.714
							c-0.047,2.308-0.038,4.614,0.016,6.922c0.113,4.827,0.48,9.631,0.989,14.432c0.133,1.255,1.588,1.887,2.634,1.288
							c0.68-0.389,0.962-1.103,0.859-1.782c0.008,0.005,0.017,0.01,0.025,0.014c-0.548-4.706-0.946-9.432-1.28-14.158
							c-0.164-2.319-0.305-4.642-0.428-6.964c-0.062-1.16-0.114-2.32-0.157-3.48c-0.01-0.269-0.013-0.529-0.025-0.781
							c1.073-0.014,2.147-0.019,3.22-0.039C189.786,194.397,190.309,193.544,190.217,192.874z"/>
						<path style="fill:#FFFFFF;" d="M170.081,213.741c-0.05-2.247-0.099-4.495-0.149-6.742c-0.099-4.49-0.283-8.979-0.415-13.469
							c-0.04-1.378-2.25-1.623-2.672-0.347c-1.436,4.332-2.89,8.655-4.368,12.971c-1.071-1.76-2.111-3.54-3.072-5.359
							c-0.708-1.339-1.375-2.7-2.043-4.06c-0.644-1.312-1.149-2.907-2.127-4.006c-0.251-0.282-0.742-0.35-1.064-0.171
							c-0.364-0.162-0.8-0.078-1.011,0.37c-0.459,0.975-0.305,2.108-0.304,3.162c0,1.15-0.001,2.301-0.001,3.451
							c-0.001,2.125,0.025,4.249,0.048,6.373c0.024,2.166,0.048,4.33,0.107,6.495c0.029,1.081,0.058,2.162,0.087,3.243
							c0.033,1.206-0.053,2.513,0.244,3.686c0.566,2.229,2.82,1.293,3.133-0.02c0.002,0.001,0.003,0.002,0.005,0.004
							c0.002-0.011,0.002-0.023,0.004-0.034c0.011-0.053,0.015-0.106,0.02-0.16c0.316-2.127-0.109-4.57-0.221-6.699
							c-0.113-2.153-0.253-4.304-0.4-6.455c-0.148-2.149-0.291-4.299-0.463-6.446c-0.035-0.434-0.069-0.868-0.104-1.302
							c0.499,1.292,1.039,2.567,1.617,3.826c1.379,3.003,2.959,5.885,4.708,8.688c0.603,0.967,2.363,0.751,2.699-0.345
							c0.838-2.732,1.689-5.459,2.549-8.183c0.027,1.65,0.052,3.299,0.096,4.949c0.057,2.166,0.114,4.332,0.171,6.498
							c0.03,1.123,0.059,2.246,0.089,3.369c0.029,1.102-0.07,2.286,0.19,3.355c0.413,1.693,2.68,1.266,2.699-0.125
							c0.174-1.021,0.045-2.109,0.022-3.143C170.13,215.988,170.105,214.864,170.081,213.741z"/>
					</g>
				</g>
			</g>
		</g>
		<g>
			<g>
				<rect x="315.497" y="405.056" style="fill:#FFFFFF;" width="7.712" height="44.56"/>
				<rect x="309.676" y="403.676" style="fill:#FFFFFF;" width="19.355" height="2.761"/>
				<rect x="309.676" y="448.235" style="fill:#FFFFFF;" width="19.355" height="2.761"/>
			</g>
			<g>
				<rect x="478.704" y="405.056" style="fill:#FFFFFF;" width="7.712" height="44.56"/>
				<rect x="472.882" y="403.676" style="fill:#FFFFFF;" width="19.355" height="2.761"/>
				<rect x="472.882" y="448.235" style="fill:#FFFFFF;" width="19.355" height="2.761"/>
			</g>
			<g>
				<rect x="641.91" y="405.056" style="fill:#FFFFFF;" width="7.712" height="44.56"/>
				<rect x="636.088" y="403.676" style="fill:#FFFFFF;" width="19.355" height="2.761"/>
				<rect x="636.088" y="448.235" style="fill:#FFFFFF;" width="19.355" height="2.761"/>
			</g>
		</g>
	</g>
</g>
<g id="OBJECTS">
	<g>
		<g>
			<path d="M253.54,432.97c-0.35,2.39-23.46,0.97-24.94,0.53c-0.42-0.13-0.71-0.78-0.83-1.7c-0.07-0.54-0.08-1.18-0.03-1.87
				c0.17-2.11,0.31-3.17,0.92-6.36c0.51-2.63,9.49,1.1,13.19,2.66c3.42,1.45,10.88,3.95,11.64,6.22
				C253.55,432.62,253.57,432.8,253.54,432.97z"/>
			<path style="fill:#FF7088;" d="M253.54,432.97c-0.35,2.39-23.46,0.97-24.94,0.53c-0.42-0.13-0.71-0.78-0.83-1.7
				c0.46,0.05,0.93,0.12,1.39,0.17c1.25,0.14,2.49,0.26,3.74,0.38c4.36,0.42,8.74,0.58,13.12,0.5c2.19-0.04,4.38-0.15,6.56-0.32
				c0.3-0.02,0.6-0.05,0.91-0.08C253.55,432.62,253.57,432.8,253.54,432.97z"/>
		</g>
		<g>
			<path d="M275.89,431.09c0.01,0.08,0.01,0.16,0,0.24c-0.27,2.18-21.24,1.36-22.59,0.99c-0.34-0.09-0.58-0.53-0.73-1.17
				c-0.13-0.55-0.17-1.27-0.13-2.04c0.1-1.92,0.2-2.88,0.68-5.79c0.39-2.4,8.62,0.8,12.01,2.14
				C268.38,426.75,275.6,428.98,275.89,431.09z"/>
			<path style="fill:#FF7088;" d="M275.89,431.09c0.01,0.08,0.01,0.16,0,0.24c-0.27,2.18-21.24,1.36-22.59,0.99
				c-0.34-0.09-0.58-0.53-0.73-1.17c0.51,0.05,1.03,0.09,1.55,0.13c4.36,0.38,8.75,0.5,13.12,0.38c2.19-0.06,4.38-0.19,6.56-0.38
				C274.5,431.22,275.19,431.16,275.89,431.09z"/>
		</g>
		<g>
			<g>
				<path style="fill:#FAA898;" d="M325.997,189.871c-1.009-0.281-2.13-0.176-3.145,0.137c-1.476,0.454-2.826,1.311-3.865,2.453
					c-1.048,1.151-1.764,2.557-2.532,3.911c-0.944,1.663-1.987,3.279-2.727,5.042c-0.052,0.124-0.102,0.252-0.134,0.382
					c0.037,0.023,0.073,0.049,0.11,0.072c1.069,0.652,2.298,0.999,3.452,1.465c0.11-0.118,0.214-0.243,0.313-0.369
					c0.687-0.877,1.373-1.753,2.06-2.63c0.203-0.259,0.413-0.525,0.695-0.694c0.221-0.133,0.475-0.199,0.719-0.282
					c1.615-0.551,2.84-1.866,3.904-3.2c0.291-0.365,0.578-0.735,0.87-1.102c0.45-0.94,0.892-1.946,1.005-2.95
					C326.836,191.104,326.366,190.549,325.997,189.871z"/>
				<g>
					<path style="fill:#CADB6A;" d="M315.557,196.158c-0.615-1.154,3.707-16.287,4.918-18.82c1.21-2.532,14.018-3.288,14.018-3.288
						s0.802,10.388-0.327,10.848c-1.13,0.46-7.181,1.344-7.181,1.344s-2.898,10.549-3.84,11.362
						C322.202,198.417,316.172,197.312,315.557,196.158z"/>
					<path style="fill:#959C6A;" d="M331.211,174.236c0.468-0.32,4.834-0.647,5.053-0.441c0.219,0.206,0.521,11.067-0.071,11.278
						c-0.592,0.211-4.686,1.202-4.941,0.762C330.997,185.395,330.946,174.417,331.211,174.236z"/>
				</g>
				<path style="fill:#FAA898;" d="M322.998,187.619c-0.117-0.087-0.269-0.109-0.414-0.121c-0.882-0.074-1.751,0.094-2.626,0.169
					c-1.541,0.133-3.065-0.507-4.491,0.366c-0.689,0.421-1.2,1.09-1.549,1.818c-0.54,1.128-0.673,2.356-0.921,3.566
					c-0.264,1.293-0.638,2.563-1.115,3.793c-0.1,0.258-0.671,1.314-1.237,2.429c0.94,0.832,1.971,1.565,3.057,2.227
					c0.236,0.144,0.482,0.271,0.732,0.39c0.572-1.138,1.248-2.929,1.633-3.312c0.986-0.98,1.702-2.199,2.188-3.495
					c0.485-1.293,0.628-2.613,0.895-3.952c0.031-0.154,0.079-0.302,0.122-0.451c0.714-0.303,1.449-0.572,2.149-0.899
					c0.836-0.391,1.724-1.017,1.784-1.938C323.221,187.992,323.172,187.749,322.998,187.619z"/>
				<path style="fill:#FAA898;" d="M328.201,186.213c-0.533-0.073-1.076-0.086-1.608,0.005c-0.302,0.051-0.635,0.15-0.923,0.314
					c-0.167,0.095-0.365,0.259-0.493,0.466c-0.23,0.37-0.254,0.902-0.052,1.318c0.081,0.167,0.205,0.261,0.339,0.325
					c-0.257,0.126-0.514,0.277-0.766,0.479c-0.216,0.173-0.409,0.63-0.408,1.126c0.001,0.516,0.141,0.858,0.362,1.002
					c0.021,0.014,0.044,0.019,0.066,0.032c-0.141,0.075-0.279,0.179-0.409,0.348c-0.335,0.434-0.3,1.304-0.042,1.682
					c-0.057-0.082-0.037-0.05,0.05,0.083c-0.322,0.098-0.719,0.182-0.982,0.682c-0.17,0.322-0.155,0.866-0.03,1.158
					c0.215,0.5,0.669,0.499,0.982,0.53c0.288,0.028,0.576,0.049,0.866,0.015c0.288-0.033,0.579-0.067,0.868-0.148
					c0.38-0.106,0.863-0.211,1.155-0.852c0.176-0.386,0.22-0.901,0.163-1.339c0.149-0.055,0.269-0.145,0.414-0.292
					c0.25-0.254,0.382-0.985,0.36-1.484c-0.003-0.082-0.017-0.157-0.027-0.235c0.261-0.238,0.486-0.812,0.485-1.41
					c-0.001-0.505-0.108-0.894-0.287-1.127c0.105-0.015,0.208-0.058,0.315-0.155c0.217-0.196,0.346-0.586,0.377-0.988
					C329.044,186.899,328.677,186.278,328.201,186.213z"/>
			</g>
			<path id="XMLID_6_" style="fill:#E84357;" d="M248.848,198.682c-3.087,4.059,0.724,10.425,7.854,17.212
				c5.564,5.296,27.128,20.596,35.624,18.926c8.549-1.68,23.691-19.335,26.882-31.784c-0.589-1.034-6.723-5.943-8.68-6.015
				c-2.544,0.903-18.54,24.089-20.636,24.241c-2.095,0.152-16.12-12.822-23.515-17.986
				C260.768,199.358,251.974,194.571,248.848,198.682z"/>
		</g>
		<g>
			<path style="fill:#CADB6A;" d="M267.63,371.48c-0.1,16.13,0.43,39.02,1.38,55.13c-2.19,0.58-10.2,0.8-14.94,0.84h-0.03
				c-1.18,0.01-2.15,0.01-2.78,0c-0.22-0.01-7.05-31.11-4.39-73.62c1.91-30.61,6.09-58.72,4.61-59.11
				c-0.04-0.02-0.08-0.01-0.13,0.02c0,0-0.01,0-0.01,0.01c-1.72,1.16-5.24,30.62-5.93,59.55c-0.85,36.29,0.87,73.81,0.87,73.81
				c-3.47,0.09-8.92,0.7-14.58,0.33h-0.02c-1.74-0.11-3.51-0.32-5.24-0.66c-2.89-31.01-8.78-146.23-0.6-164.44
				c2.83,0.82,5.63,1.42,8.36,1.84c0.02,0.01,0.04,0.01,0.07,0.01c8.28,1.29,15.98,0.99,22.46,0.41c0.04-0.01,0.08-0.01,0.12-0.01
				c0.87-0.08,1.72-0.17,2.55-0.25c0.04-0.01,0.08-0.01,0.11-0.01c4.94-0.53,9.01-1.11,11.88-1.06c3.08,12.08,5.17,28.39,3.16,40.58
				C272.23,318.91,267.73,354.19,267.63,371.48z"/>
			<g>
				<path d="M227.8,345.03c-0.16,7.06,0.02,14.13,0.24,21.19c0.21,7.07,0.57,14.13,0.95,21.19c0.38,7.05,0.84,14.11,1.31,21.16
					c0.42,6.63,0.89,13.25,1.39,19.87h-0.01c-0.6-6.61-1.15-13.23-1.68-19.85c-0.51-7.05-1-14.1-1.42-21.16
					c-0.41-7.06-0.8-14.12-1.05-21.19c-0.25-7.07-0.47-14.14-0.34-21.22c0.16-7.09,0.84-14.13,1.39-21.18l1.87-21.12l2.03-21.12
					l1.72-16.42l0.49-4.67l-0.42,4.68l-3.41,37.56l-1.77,21.13C228.57,330.93,227.93,337.98,227.8,345.03z"/>
				<path d="M254.07,427.45h-0.03c-0.58-5.11-1.11-10.21-1.6-15.33c-0.51-5.54-0.97-11.07-1.36-16.62
					c-0.38-5.54-0.74-11.09-0.95-16.64c-0.22-5.56-0.38-11.12-0.18-16.68c0.11-2.79,0.37-5.57,0.63-8.33
					c0.25-2.76,0.45-5.53,0.63-8.3c0.36-5.54,0.63-11.09,0.87-16.63c0.23-5.55,0.41-11.11,0.58-16.66
					c0.19-5.55,0.36-11.1,0.49-16.66c-0.03,5.56-0.1,11.11-0.19,16.67c-0.12,5.55-0.28,11.11-0.48,16.66
					c-0.19,5.55-0.44,11.11-0.76,16.65c-0.16,2.78-0.35,5.55-0.58,8.32c-0.24,2.78-0.48,5.53-0.57,8.3
					c-0.24,5.54-0.11,11.09,0.07,16.64c0.17,5.55,0.5,11.09,0.84,16.64c0.36,5.54,0.8,11.07,1.25,16.61
					C253.14,417.22,253.58,422.33,254.07,427.45z"/>
				<path d="M252.511,293.916c1.135-0.182,2.289-0.225,3.429-0.02c-1.122,0.272-2.229,0.424-3.325,0.624
					c-1.103,0.187-2.174,0.37-3.259,0.745c0.414-0.414,0.949-0.679,1.486-0.895C251.38,294.146,251.946,294.02,252.511,293.916z"/>
				<path d="M260.02,277.39c-0.03,0.76-0.04,1.5-0.1,2.28c-0.04,0.4-0.12,0.82-0.36,1.21c-0.23,0.4-0.66,0.68-1.14,0.74
					c-0.23,0.03-0.5-0.01-0.74-0.15c-0.23-0.15-0.38-0.4-0.45-0.62c-0.12-0.47-0.08-0.82-0.1-1.2l-0.09-2.27
					c-0.06-1.51-0.13-3.02-0.16-4.54c-0.08-2.41-0.13-4.82-0.15-7.24c0.04-0.01,0.08-0.01,0.12-0.01c0.19,2.41,0.36,4.82,0.5,7.23
					c0.1,1.51,0.16,3.02,0.24,4.53l0.12,2.27c0.03,0.37,0.02,0.78,0.1,1.05c0.08,0.27,0.26,0.37,0.54,0.34
					c0.61-0.05,0.93-0.69,0.99-1.4c0.06-0.72,0.09-1.5,0.13-2.24c0.07-1.51,0.08-3.02,0.1-4.53c0.02-2.5-0.04-5-0.17-7.5
					c-0.02-0.52-0.05-1.04-0.08-1.56c0.07,0.51,0.14,1.03,0.19,1.55c0.3,2.49,0.48,5,0.53,7.51
					C260.09,274.35,260.07,275.87,260.02,277.39z"/>
			</g>
		</g>
		<path id="XMLID_22_" style="fill:#FF7088;" d="M272.505,266.258c1.515-1.634-4.608-18.322-4.721-23.897
			c-0.119-5.868,1.784-6.665,2.404-15.114c0.393-5.353-0.487-10.685-2.5-15.512c-3.567-8.556-6.368-10.37-8.774-12.48
			c-6.523-5.721-28.563-8.038-38.785,1.531c-2.972,2.783-1.126,8.267,0.134,14.642c2.081,10.533,8.795,21.429,9.05,28.422
			c0.136,3.733-7.333,21.572-5.654,22.941c1.68,1.369,18.868,3.184,26.473,2.653C257.738,268.913,270.991,267.892,272.505,266.258z"
			/>
		<path style="fill:#E84357;" d="M233.99,195.081c-2.532,1.851,3.898,6.717,12.441,6.039c1.591-0.126,4.058-0.314,5.091-1.575
			c1.094-1.337-0.627-3.006-1.906-3.671c-1.352-0.702-2.987-1.02-4.509-1.323c-1.332-0.265-2.684-0.467-4.045-0.574
			C238.792,193.798,235.85,193.722,233.99,195.081z"/>
		<g>
			<defs>
				<path id="XMLID_20_" d="M235.152,195.525c-2.026,1.319,3.585,4.639,10.69,4.07c1.323-0.106,3.375-0.264,4.177-1.155
					c0.849-0.944-0.67-2.089-1.771-2.537c-1.164-0.475-2.546-0.677-3.832-0.872c-1.126-0.17-2.265-0.295-3.408-0.355
					C239.102,194.576,236.639,194.556,235.152,195.525z"/>
			</defs>
			<use xlink:href="#XMLID_20_"  style="overflow:visible;fill:#FAA898;"/>
			<clipPath id="XMLID_00000052817506710290819270000014426989811994457772_">
				<use xlink:href="#XMLID_20_"  style="overflow:visible;"/>
			</clipPath>
			<path style="opacity:0.29;clip-path:url(#XMLID_00000052817506710290819270000014426989811994457772_);fill:#FAA898;" d="
				M248.094,198.615c0.551-0.711,0.75-1.681,0.523-2.551c-0.08-0.307-0.19-0.686,0.046-0.899c0.244-0.22,0.628-0.053,0.907,0.12
				c0.656,0.408,1.319,0.821,1.856,1.376c0.536,0.555,0.941,1.275,0.961,2.045c0.027,1.004-0.631,1.956-1.523,2.424
				c-0.892,0.468-1.974,0.492-2.942,0.215c-0.535-0.153-1.859-0.512-1.703-1.216C246.351,199.533,247.706,199.115,248.094,198.615z"
				/>
		</g>
		<g>
			<g>
				<path style="fill:#FAA898;" d="M236.571,195.167c0,0,1.138,3.46,7.013,3.913c5.888,0.467,5.016-3.281,5.016-3.281l0.051-3.24
					l0.16-9.364l-12.041-0.645l-0.047,3.158L236.571,195.167z"/>
				<path style="fill:#F75752;" d="M236.723,185.707c0.177,0.288,0.385,0.549,0.614,0.796c2.549,2.815,6.902,5.643,11.314,6.055
					l0.16-9.364l-12.041-0.645L236.723,185.707z"/>
			</g>
			<g>
				<path d="M222.884,152.294c-2.925,0.59-5.951,1.729-7.688,4.156c-1.18,1.647-1.633,3.751-1.465,5.77
					c0.168,2.019,0.926,3.958,1.973,5.693c0.932,1.543,2.122,2.968,3.654,3.919c1.531,0.951,3.434,1.391,5.177,0.931
					c1.924-0.507,3.438-2.027,4.478-3.724c1.541-2.514,2.163-5.544,1.877-8.469c-0.145-1.487-0.539-2.912-1.125-4.284
					c-0.458-1.072-0.775-2.291-1.671-3.085C226.592,151.872,224.738,151.92,222.884,152.294z"/>
				<path id="XMLID_17_" style="fill:#FAA898;" d="M260.877,148.449c-8.82-11.524-26.148-10.691-32.256,1.743
					c-3.675,7.904-1.989,19.666,3.061,27.982c0.225,0.378,0.45,0.741,0.691,1.094c3.432,5.14,7.484,7.693,10.9,8.952
					c3.131,1.152,5.723,1.219,6.846,1.225c5.924,0.03,11.192-1.515,13.487-7.476c1.726-4.482,1.636-9.503,2.05-14.221
					c0.213-2.431,0.288-4.884,0.065-7.317c-0.382-4.178-1.776-8.136-4.399-11.438C261.177,148.809,261.029,148.628,260.877,148.449z
					"/>
				<g>
					<path d="M252.737,161.597c1.074,1.322-2.047,0.069-4.828,0.41c-2.655,0.325-5.261,2.051-5.4,1.67
						c-0.139-0.381,1.311-2.913,4.163-3.398C249.523,159.795,251.908,160.577,252.737,161.597z"/>
					<path d="M262.634,160.689c-1.539-0.693-2.721-0.013-3.066,1.017c-0.447,1.335,1.08,0.202,2.569,0.738
						c1.422,0.512,2.941,2.506,2.98,2.111C265.157,164.159,264.172,161.382,262.634,160.689z"/>
					<g>
						<g>
							<path d="M249.175,168.472c0.012,1.222-0.681,2.218-1.55,2.227c-0.868,0.008-1.582-0.976-1.594-2.197
								c-0.012-1.222,0.681-2.219,1.549-2.227C248.449,166.267,249.163,167.251,249.175,168.472z"/>
						</g>
					</g>
					<g>
						<g>
							<path d="M262.111,168.749c0.012,1.152-0.51,2.091-1.166,2.098c-0.655,0.006-1.196-0.923-1.207-2.076
								c-0.012-1.152,0.51-2.091,1.166-2.098C261.559,166.667,262.1,167.597,262.111,168.749z"/>
						</g>
					</g>
					<path style="fill:#F75752;" d="M257.504,165.653c0.073-0.113,0.242-0.043,0.217,0.088c-0.331,1.673-1.095,3.899,0.229,5.35
						c0.522,0.573,1.41,0.924,1.531,1.773c0.114,0.8-0.479,1.584-1.034,2.097c-0.186,0.172-0.428-0.078-0.276-0.269
						c0.286-0.359,0.495-0.774,0.602-1.22c0.135-0.56-0.163-0.859-0.578-1.189c-0.662-0.526-1.19-1.008-1.504-1.809
						C256.039,168.817,256.581,167.083,257.504,165.653z"/>
				</g>
				<path style="fill:#F75752;" d="M252.289,175.812c0.22,0.121,0.454,0.207,0.677,0.323c0.238,0.124,0.48,0.244,0.731,0.34
					c0.483,0.186,0.973,0.34,1.486,0.42c1.031,0.16,2.085,0.033,3.083-0.249c0.208-0.059,0.343,0.247,0.149,0.353
					c-1.011,0.549-2.18,0.69-3.312,0.538c-0.555-0.074-1.106-0.208-1.619-0.436c-0.27-0.12-0.535-0.257-0.779-0.425
					c-0.243-0.167-0.428-0.373-0.625-0.591C251.948,175.939,252.112,175.715,252.289,175.812z"/>
				<path d="M265.786,163.053c-0.018,0.46-0.052,0.94,0.13,1.363c0.182,0.424,0.661,0.761,1.097,0.611
					c0.391-0.134,0.572-0.574,0.692-0.969c1.466-4.801,0.682-10.239-2.082-14.429c-2.764-4.191-7.454-7.053-12.444-7.595
					c-0.447-0.049-0.969-0.051-1.26,0.292c-0.483,0.569,0.115,1.398,0.675,1.891c1.338,1.177,2.676,2.712,4.238,3.583
					c1.196,0.667,2.276,1.167,3.32,2.111c2.346,2.123,4.083,4.913,4.974,7.947C265.628,159.568,265.786,161.278,265.786,163.053z"/>
				<g>
					<path d="M260.45,147.92c-0.85,1.66-1.62,3.22-3.19,4.29c-1.72,1.17-3.75,1.66-5.69,2.32c-2.53,0.87-4.98,2.06-7.09,3.79
						c-2.13,1.74-3.9,4.03-4.8,6.67c-0.48,1.47-0.72,3.05-1.5,4.39c-0.15,0.27-0.34,0.52-0.55,0.75c-0.75,0.84-2.15,0.53-2.52-0.53
						c-0.46-1.33-0.7-2.77-1.96-3.71c-2.62-1.95-4.73,0.02-7.19,0.95c-0.62,0.23-1.07,0.58-1.4,0.97c-1.34-1.05-2.34-2.61-2.87-4.32
						c-0.82-2.69-0.62-5.66-0.1-8.5c0.53-2.9,1.44-5.81,3.03-8.28c0.24-0.4,0.51-0.78,0.8-1.16c0.38-0.49,0.79-0.94,1.22-1.37
						c1.49-1.51,3.27-2.69,5.15-3.61c0.27-0.14,0.55-0.27,0.82-0.4c1.32-0.59,2.68-1.07,4.07-1.43c3.57-0.93,7.28-1.08,10.81-0.4
						c2.99,0.58,5.83,1.74,8.37,3.4c1.32,0.86,2.55,1.85,3.69,2.95C260.62,145.74,261.22,146.39,260.45,147.92z"/>
				</g>
				<path style="opacity:0.2;fill:#F3DCFF;" d="M250.89,152.51c-1.77,1.72-5.63,2.83-7.93,3.41c-1.34,0.34-2.91,0.5-3.97-0.38
					c-1.16-0.97-1.18-2.69-1.57-4.15c-0.08-0.28-0.18-0.58-0.4-0.78c-0.26-0.24-0.62-0.3-0.96-0.33c-1.35-0.1-2.69,0.3-4.05,0.24
					c-1.35-0.06-2.86-0.81-3.06-2.15c-0.13-0.94,0.4-2.03-0.17-2.79c-0.27-0.35-0.7-0.52-1.1-0.72c-0.36-0.18-0.72-0.41-1.04-0.68
					c1.49-1.51,3.27-2.69,5.15-3.61c0.27-0.14,0.55-0.27,0.82-0.4c1.32-0.59,2.68-1.07,4.07-1.43c0.66,1.14,0.64,2.61,1.44,3.67
					c1.08,1.44,3.16,1.54,4.96,1.69c1.81,0.14,3.95,0.75,4.42,2.5c0.14,0.54,0.12,1.18,0.5,1.59c0.94,1,2.53,0.22,3.36,1.64
					C251.97,150.88,251.69,151.75,250.89,152.51z"/>
				<g>
					<path style="fill:#FAA898;" d="M234.746,173.651c-0.598,2.217-3.851,3.149-6.597,1.301c-2.746-1.849-4.947-7.707-3.121-11.028
						c1.826-3.322,6.587-2.091,8.547,1.678C235.056,168.448,235.213,171.923,234.746,173.651z"/>
					<path style="fill:#F75752;" d="M226.987,165.583c-0.11-0.107-0.071-0.318,0.071-0.363c0.621-0.197,1.341,0.201,1.88,0.52
						c0.593,0.351,1.151,0.803,1.615,1.338c0.939,1.083,1.6,2.532,1.638,4.027c0.007,0.279-0.39,0.378-0.46,0.089
						c-0.318-1.319-0.824-2.563-1.709-3.555c-0.12-0.134-0.253-0.248-0.382-0.37c-0.046,0.07-0.102,0.134-0.15,0.2
						c-0.085,0.118-0.174,0.233-0.258,0.351c-0.17,0.241-0.315,0.5-0.45,0.766c-0.273,0.54-0.426,1.145-0.737,1.662
						c-0.058,0.096-0.233,0.118-0.26-0.025c-0.13-0.692,0.126-1.368,0.428-1.964c0.152-0.301,0.338-0.586,0.536-0.853
						c0.096-0.13,0.196-0.254,0.31-0.367c0.051-0.051,0.103-0.102,0.156-0.148c-0.199-0.157-0.402-0.31-0.619-0.439
						C228.082,166.146,227.427,166.008,226.987,165.583z"/>
				</g>
			</g>
			<g>
				<path style="fill:#A4BEF4;" d="M242.629,172.38c-1.455-0.467-2.829-1.16-4.153-2.05c-0.649-0.437-1.288-0.911-1.912-1.403
					c-0.629-0.495-1.212-1.051-1.903-1.401c-0.219-0.111-0.571,0.191-0.381,0.512c0.468,0.789,1.065,1.31,1.712,1.827
					c0.665,0.531,1.354,0.993,2.071,1.401c1.412,0.802,2.897,1.426,4.399,1.908C242.852,173.3,243.018,172.505,242.629,172.38z"/>
				<path style="fill:#A4BEF4;" d="M240.361,186.077c-0.333-0.424-0.9-0.673-1.329-1.015c-0.462-0.368-0.971-0.691-1.448-1.045
					c-0.959-0.713-1.869-1.468-2.7-2.301c-0.818-0.82-1.581-1.697-2.263-2.613c-0.717-0.964-1.23-1.983-1.786-3.025
					c-0.158-0.296-0.706-0.071-0.596,0.241c0.383,1.082,0.994,2.13,1.595,3.124c0.618,1.022,1.335,1.975,2.157,2.87
					c0.825,0.899,1.733,1.754,2.733,2.499c0.464,0.346,0.951,0.713,1.474,0.984s1.152,0.69,1.767,0.757
					C240.233,186.58,240.555,186.324,240.361,186.077z"/>
				<path style="fill:#F3DCFF;" d="M265.202,178.9c-0.602,1.813-2.063,8.413-7.824,10.724c-5.927,2.377-12.426,0.942-16.597-1.63
					c-5.038-3.107-1.63-16.698,2.357-15.985c7.363,1.317,9.711-0.454,13.463-1.183c3.752-0.729,4.082,2.38,8.086,2.38
					C266.512,173.206,265.804,177.087,265.202,178.9z"/>
			</g>
		</g>
		<g>
			<path style="fill:#F3DCFF;" d="M275.719,341.53c-0.02,0.17-0.04,0.33-0.05,0.48c-0.14,1.39-0.26,2.36-0.35,2.84
				c-0.66,3.67-11.64,5.86-43.99,1.1c0,0,0.1-1.8,0.26-4.87c0.01-0.14,0.02-0.29,0.02-0.43c0.92-16.96,3.63-69.28,3.1-77.91
				c-0.64-10.33-1.21-32.06-0.27-38.09c0.65-4.09,1.8-8.19,2.6-11.29c0.04-0.16,0.08-0.32,0.12-0.47c0.17-0.66,0.32-1.27,0.44-1.82
				c-2.45-6.86-8.83-13.25-10.28-14.64c-0.14-0.13-0.08-0.35,0.1-0.4l4.24-1.25c0.32-0.09,0.68-0.02,0.94,0.2
				c4.91,4.07,7.5,9.29,8.81,12.94c4.3-1.04,11.54-1.58,16.24-1.42c-2.5-5.62-6.5-10.22-7.27-11.08c-0.04-0.04,0.01-0.1,0.06-0.09
				l3.99,1.23c0.17,0.05,0.33,0.14,0.46,0.27c3.66,3.66,5.7,7.43,6.82,10.19c0.16,0.07,0.3,0.14,0.38,0.22
				c0.75,0.73,1.82,1.95,2.93,3.31c0.17,0.21,0.34,0.42,0.52,0.64c1.35,1.68,2.69,3.47,3.54,4.73c1.66,2.45,4.07,13.83,1.42,20.78
				c-2.65,6.95,6.8,24.1,7.45,47.93C278.509,305,276.669,331.88,275.719,341.53z"/>
			<path style="fill:#E0B1FF;" d="M265.539,211.19c-0.89-0.14-1.78-0.26-2.68-0.36c-8.69-0.98-17.49-0.06-25.82,2.53
				c0.04-0.16,0.08-0.32,0.12-0.47c1.48-0.51,2.99-0.95,4.52-1.32c7.55-1.85,15.6-2.25,23.34-1.02
				C265.189,210.76,265.359,210.97,265.539,211.19z"/>
			<path style="fill:#E0B1FF;" d="M275.719,341.53c-0.02,0.17-0.04,0.33-0.05,0.48c-1.98,0.45-3.98,0.82-5.99,1.12
				c-8.29,1.24-16.74,1.38-25.07,0.41c-4.39-0.51-8.75-1.33-13.02-2.46c0.01-0.14,0.02-0.29,0.02-0.43c0.73,0.19,1.46,0.37,2.2,0.54
				c8.16,1.89,16.56,2.71,24.94,2.43C264.449,343.43,270.129,342.72,275.719,341.53z"/>
		</g>
		<g>
			<path style="fill:#FAA898;" d="M235.58,270.767c2.439,1.9,5.076,5.405,6.056,7.617c1.081,2.273,1.791,2.329,1.572,0.199
				c-0.267-1.993-1.357-3.766-1.026-4.021c0.165-0.122,0.754,1.315,1.69,3.259c1.093,2.259,1.59,4.352,2.396,3.667
				c1.019-0.81-0.441-6.685-1.438-8.214c-0.845-1.628,2.845,3.717,3.723,6.415c1.042,2.86,2.504,2.647,1.632-1.48
				c-1.009-3.989-2.598-6.256-2.786-7.286c0.708,0.479,1.603,1.018,3.778,4.948c1.466,3.076,2.782,2.159,1.753-1.452
				c-1.262-4.398-5.853-8.018-5.545-9.083c0.642-0.595,1.798,0.296,5.113,1.285c3.321,1.204-0.162-2.598-3.621-4.186
				c-3.464-1.74-7.422-3.601-10.604-3.841c-4.211-0.317-6.438-0.389-7.933,2.45c-0.95,1.697-2.607,4.314-1.198,5.851
				C230.243,268.103,233.57,268.823,235.58,270.767z"/>
			<g>
				<path style="fill:#E84357;" d="M235.81,267.79c-0.08,0.15-0.16,0.29-0.24,0.43c-0.65,1.17-1.2,2.03-1.44,2.25
					c-12.84-0.44-31.53-12.1-35.01-20.09c-3.46-7.94,6.85-32.29,10.82-38.86c4.86-8.02,9.97-13.01,14.45-11.63
					c0.23,0.07,0.45,0.16,0.67,0.26c0.07,0.03,0.14,0.07,0.21,0.11c4.39,2.36,1.65,11.78-0.93,18c-3.45,8.33-13.1,24.81-12.51,26.83
					c0.6,2.01,26.27,11.06,27.7,13.35C239.77,259.78,237.51,264.66,235.81,267.79z"/>
			</g>
			<path style="fill:#FF7088;" d="M235.81,267.79c-0.08,0.15-0.16,0.29-0.24,0.43c-6.38-1.51-12.58-3.85-18.38-6.89
				c-3.04-1.6-5.99-3.38-8.81-5.35c-2.43-1.69-4.97-3.58-6.32-6.3c-1.52-3.07-1.11-6.56-0.16-9.73c0.96-3.16,2.32-6.21,3.61-9.23
				c2.58-6.06,5.42-12.02,8.85-17.64c1.67-2.73,3.47-5.37,5.44-7.89c1.43-1.84,2.94-3.65,4.59-5.3c0.23,0.07,0.45,0.16,0.67,0.26
				c0.07,0.03,0.14,0.07,0.21,0.11c-1.88,2.03-3.73,4.08-5.41,6.3c-2.12,2.8-4.04,5.75-5.81,8.79c-3.22,5.54-5.92,11.37-8.38,17.28
				c-2.34,5.62-6.09,12.94-1.62,18.48c1.95,2.41,4.73,4.17,7.31,5.85c2.76,1.79,5.63,3.42,8.58,4.87
				C225.02,264.34,230.34,266.31,235.81,267.79z"/>
		</g>
		<path style="fill:#E0B1FF;" d="M242.5,286.628c0,0,6.973-20.741,7.359-28.183l19.246-0.965c0,0,6.473,25.936,7.218,27.941
			C276.323,285.42,266.216,288.787,242.5,286.628z"/>
	</g>
	<g>
		<g>
			<defs>
				<path id="SVGID_1_" d="M630.335,200.218c0.364-0.94,0.724-1.877,0.977-2.827c0.609-2.292,0.558-4.742-0.769-6.783
					c-2.337-3.595-6.621-4.452-10.254-6.146c-1.698-0.792-3.555-1.84-4.368-3.622c-2.522-5.53,1.007-12.101-4.636-16.411
					c-1.91-1.458-4.266-2.093-6.615-2.392c-2.284-0.291-4.462,0.014-6.501-1.231c-1.778-1.086-2.415-3.037-2.758-4.888
					c-0.844-4.55-0.636-9.529-3.214-13.815c-2.533-4.214-12.183-11.947-26.87-8.128c-9.737,2.532-19.44,9.627-21.552,20.309
					c-0.827,4.184,1.092,8.461,1.957,12.56c0.846,4.005,0.582,8.443-3,10.824c-2.564,1.705-6.323,2.003-9.108,3.434
					c-4.153,2.134-5.288,6.852-2.614,10.396c2.442,3.236,7.57,5.563,8.128,8.98c0.424,2.601-2.208,7.867-13.158,8.763h115.642
					c-3.23-0.153-9.036-1.17-11.083-3.884C629.467,203.935,629.811,202.074,630.335,200.218z"/>
			</defs>
			<use xlink:href="#SVGID_1_"  style="overflow:visible;fill:#FF7088;"/>
			<clipPath id="SVGID_00000183213141955475303960000008652891166675224729_">
				<use xlink:href="#SVGID_1_"  style="overflow:visible;"/>
			</clipPath>
			<path style="opacity:0.38;clip-path:url(#SVGID_00000183213141955475303960000008652891166675224729_);fill:#FF616B;" d="
				M582.044,173.38c0.309,2.907,1.571,5.757,4.183,7.653c2.744,1.992,6.658,2.746,9.831,4.258c3.331,1.588,5.794,4.033,6.909,6.824
				c0.813,2.037,0.943,4.268,2.349,6.028c1.335,1.672,3.667,2.727,5.599,4c3.097,2.041,5.279,5.087,3.94,8.134
				c-0.173,0.393-0.414,0.792-0.846,1.092c-0.844,0.587-2.12,0.623-3.237,0.615c-7.724-0.055-15.451-0.111-23.181-0.167
				c-3.598-0.026-7.199-0.052-10.778-0.234c-3.647-0.186-7.538-0.621-10.131-2.398c-2.425-1.662-3.247-4.171-4.217-6.536
				c-1.39-3.391-3.292-6.748-5.681-9.998c-1.993-2.711-4.406-5.594-4.058-8.778c0.229-2.1,1.647-4.023,3.048-5.892
				c1.487-1.983,2.992-3.99,4.514-6.02c1.22-1.627,2.465-3.284,4.117-4.702c2.511-2.155,5.822-3.642,9.163-4.99
				c1.961-0.791,4.132-1.567,6.229-1.227c2.603,0.423,3.297,2.492,2.949,4.33C582.232,168.088,581.764,170.746,582.044,173.38z"/>
		</g>
		<path style="fill:#F3DCFF;" d="M596.632,273.838c-0.212,3.526-0.51,7.053-0.827,10.582c0.315-0.051,0.629-0.112,0.946-0.155
			c1.315-0.178,2.549-0.184,3.775-0.111c0.261-2.781,0.374-5.57,0.613-8.074c0.532-5.565,0.878-11.124,1.05-16.665
			c0.394-12.742-0.139-25.384-1.496-37.819c-0.835-7.658-2.011-15.348-5.116-22.072c-0.841-1.823-1.906-3.648-3.685-4.493
			c-1.779-0.846-4.445-0.303-5.538,1.645c3.532,3.374,5.021,8.494,6.161,13.489C597.17,230.566,597.936,252.2,596.632,273.838z"/>
		<g>
			<path d="M567.68,427.66c0.02,0.96-0.1,1.83-0.32,2.47c-0.2,0.55-0.48,0.92-0.83,1.02c-1.59,0.45-26.11,2.16-26.33-0.18
				c-0.03-0.32,0.11-0.65,0.4-0.98c1.76-2.11,8.96-4.41,12.42-5.76c4.02-1.58,13.76-5.34,14.12-2.78
				C567.57,424.56,567.65,425.6,567.68,427.66z"/>
			<path style="fill:#E84357;" d="M567.36,430.13c-0.2,0.55-0.48,0.92-0.83,1.02c-1.59,0.45-26.11,2.16-26.33-0.18
				c-0.03-0.32,0.11-0.65,0.4-0.98c1.12,0.05,2.31,0.3,3.12,0.35c4.83,0.34,9.71,0.44,14.61,0.29c2.81-0.08,5.63-0.25,8.45-0.49
				C566.96,430.12,567.16,430.11,567.36,430.13z"/>
		</g>
		<g>
			<path d="M606.68,426.78c-0.07,0.58-0.26,1.01-0.58,1.18c-1.47,0.79-25.22,7.85-25.94,5.63c-0.1-0.31-0.03-0.66,0.18-1.05
				c1.31-2.43,7.88-6.23,10.99-8.31c3.61-2.41,12.39-8.21,13.29-5.8c1.09,2.92,1.39,3.9,1.86,5.89
				C606.7,425.24,606.77,426.12,606.68,426.78z"/>
			<path style="fill:#E84357;" d="M606.68,426.78c-0.07,0.58-0.26,1.01-0.58,1.18c-1.47,0.79-25.22,7.85-25.94,5.63
				c-0.1-0.31-0.03-0.66,0.18-1.05c1.12-0.2,2.33-0.22,3.15-0.35c4.83-0.73,9.65-1.71,14.43-2.93c2.75-0.7,5.49-1.48,8.21-2.34
				C606.3,426.87,606.49,426.82,606.68,426.78z"/>
		</g>
		<g>
			<path style="fill:#FFC2BD;" d="M520.798,265.29c-2.599,2.15-5.829,5.999-7.282,8.17c-1.541,2.299-1.183,3.019,0.289,1.685
				c1.4-1.269,2.754-2.93,3.03-2.675c0.142,0.129-1.064,1.133-2.24,2.961c-1.363,2.119-2.249,3.862-1.436,4.179
				c0.813,0.318,3.998-3.787,5.214-4.971c0.988-1.346-2.312,3.785-2.997,6.05c-0.905,2.433,0.06,3.427,1.668,0.727
				c1.677-2.668,3.025-4.612,3.741-5.032c-0.096,0.791-0.564,1.553-1.929,4.913c-0.916,2.553,0.293,3.171,1.668,0.971
				c1.638-2.664,3.574-6.963,4.595-6.699c0.596,0.499-0.11,1.484,0.169,4.378c0.308,2.917,1.43-0.612,2.319-3.262
				c0.867-2.789,2.855-5.292,3.826-7.184c1.293-2.566,2.396-3.474,0.485-5.542c-1.115-1.206-2.589-3.419-4.758-3.139
				C525.419,261.045,523.162,263.388,520.798,265.29z"/>
			<path style="fill:#FFC2BD;" d="M550.919,196.696c-3.469,4.155-3.986,10.309-4.201,22.82c-0.192,11.148-0.072,16.667-0.984,19.897
				c-0.879,3.113-21.849,22.78-22.08,24.264c0.257,1.103,4.588,5.969,5.21,6.258c6.671-1.986,26.905-20.353,29.005-25.841
				c2.369-6.188,2.613-23.407,2.73-33.313C560.755,197.552,554.48,192.429,550.919,196.696z"/>
			<g>
				<path d="M535.767,264.991c-0.255-0.492-0.531-0.973-0.827-1.441c-0.596-0.946-1.27-1.86-2.014-2.695
					c-0.72-0.809-1.545-1.533-2.399-2.197c-0.434-0.337-0.875-0.674-1.343-0.963c-0.465-0.286-1.027-0.686-1.585-0.701
					c-0.441-0.012-0.664,0.475-0.479,0.835c0.227,0.44,0.762,0.755,1.132,1.075c0.382,0.329,0.766,0.653,1.132,1
					c0.755,0.715,1.441,1.49,2.092,2.3c0.611,0.761,1.174,1.553,1.671,2.395c0.203,0.344,0.385,0.699,0.568,1.055
					c-0.029-0.036-0.059-0.075-0.087-0.111c-0.322-0.42-0.648-0.836-0.989-1.241c-0.586-0.694-1.206-1.362-1.864-1.99
					c-0.714-0.681-1.507-1.292-2.297-1.883c-0.831-0.621-1.793-1.207-2.854-1.249c-1.011-0.039-1.477,1.077-1.082,1.885
					c0.402,0.819,1.221,1.419,1.906,1.994c0.664,0.557,1.286,1.157,1.907,1.761c0.607,0.589,1.188,1.205,1.736,1.849
					c0.137,0.161,0.272,0.323,0.406,0.488c0.08,0.098,0.159,0.198,0.238,0.297c0.001,0.001,0.001,0.002,0.002,0.003
					c0.32,0.432,0.617,0.924,0.999,1.302c0.608,0.602,1.576,0.651,2.246,0.134c0.542-0.419,0.719-1.012,0.62-1.618
					c0.081,0.08,0.163,0.16,0.27,0.213c0.573,0.286,1.239,0.048,1.434-0.584C536.508,266.251,536.063,265.561,535.767,264.991z"/>
				<path d="M538.314,263.295c-1.059-1.666-2.307-3.221-3.802-4.515c-1.447-1.251-3.008-2.557-4.775-3.325
					c-0.395-0.172-0.882,0.307-0.502,0.65c1.385,1.249,2.834,2.379,4.036,3.819c1.171,1.403,2.26,2.88,3.195,4.451
					C537.172,265.559,539.053,264.459,538.314,263.295z"/>
			</g>
		</g>
		<g>
			<path style="fill:#E84357;" d="M604.78,418.04c-0.78,2.57-10.45,8.67-13.55,6.7c-3.1-1.97-25.61-70.25-26.51-80.36
				c-0.9-10-1.63-46.61-3.85-57.42c-0.42-2.04-3.9-2.11-3.82,0c0.32,8.25,2.63,31.62,4.58,57.7c2.23,29.82,6.8,70.01,5.48,77.45
				c-0.72,4.05-12.85,5.75-14.93,2.48c-2.08-3.25-4.57-46.07-10.41-79.7c-4.53-26.08-6.69-46.33-7.36-56.28
				c-0.58-8.74,0.61-16.03,2.44-21.97c0.05-0.12,0.09-0.23,0.13-0.35c0.91-2.21,1.98-4.34,3.17-6.4c0.14-0.26,0.29-0.52,0.45-0.77
				c1.2-2.03,2.52-4.01,3.93-5.94c0.42-0.56,0.84-1.12,1.28-1.67c0.07-0.1,0.15-0.2,0.24-0.29c1.1-1.39,2.27-2.72,3.48-4.02
				c0.56,0.24,1.12,0.47,1.69,0.69c2.63,1.02,5.36,1.9,8.16,2.57c0.16,0.04,0.32,0.08,0.48,0.12c2.96,0.68,6,1.14,9.08,1.28
				c3.29,0.15,6.6,0.02,9.9-0.09c1.61-0.05,3.2-0.14,4.81-0.3c0.25-0.02,0.5-0.04,0.76-0.06c0.4,0.76,0.76,1.55,1.16,2.31
				c10.85,20.16-1.34,84-1.19,89.74C584.56,350.54,605.56,415.48,604.78,418.04z"/>
			<g>
				<path d="M592.41,397.61c-2.15-7.07-4.25-14.1-6.23-21.11c-1.9-6.96-3.94-13.85-5.25-20.81c-0.7-3.43-0.55-6.97-0.49-10.48
					c0.11-3.5,0.32-7,0.56-10.47c0.92-13.78,2.36-27.33,3.39-40.7c0.25-3.31,0.49-6.61,0.63-9.9c0.07-1.64,0.12-3.28,0.09-4.92
					c-0.04-1.65-0.25-3.26-0.45-4.87c-0.6-4.57-1.4-9.09-2.32-13.55c1.15-0.06,2.3-0.13,3.44-0.27c0.19-0.02,0.2-0.31,0-0.29
					c-1.18,0.06-2.35,0.11-3.53,0.13c-0.34-1.64-0.7-3.29-1.07-4.92c0.33,1.64,0.65,3.28,0.96,4.93c-4.74,0.09-9.45-0.19-14.14-1.06
					c-3.44-0.64-6.82-1.54-10.12-2.69c0.57-2.04,1.23-4.07,1.98-6.05c-0.16-0.04-0.32-0.08-0.48-0.12c-0.47,1.28-0.9,2.56-1.3,3.84
					c-0.23,0.72-0.42,1.45-0.62,2.18c-2.11-0.75-4.19-1.6-6.21-2.55c-1.77-0.83-3.51-1.73-5.2-2.71c-0.09,0.09-0.17,0.19-0.24,0.29
					c0.54,0.33,1.09,0.65,1.65,0.96c-0.33,0.46-0.58,0.98-0.89,1.45c-0.4,0.62-0.85,1.18-1.35,1.72c-0.93,1.02-1.99,1.94-3.16,2.67
					c-0.47,0.29-0.96,0.57-1.46,0.81c-0.16,0.25-0.31,0.51-0.45,0.77c0.76-0.37,1.49-0.8,2.19-1.28c1.14-0.79,2.21-1.68,3.14-2.71
					c0.47-0.51,0.9-1.07,1.32-1.63c0.36-0.49,0.77-1.03,0.99-1.62c3.06,1.69,6.25,3.12,9.53,4.3c-1.07,3.96-1.82,8.03-2.17,12.12
					c-0.25,2.85-0.32,5.71-0.23,8.56c0.01,0.17,0.27,0.17,0.27,0c-0.15-6.91,0.74-13.85,2.56-20.53c5.03,1.77,10.27,2.93,15.59,3.45
					c1.35,5.47,5.32,10.45,10.7,12.37c0.06,0.5,0.13,0.99,0.18,1.48c0.16,1.61,0.36,3.23,0.37,4.84c0.01,1.62-0.06,3.25-0.16,4.89
					c-0.18,3.28-0.46,6.57-0.75,9.88c-1.2,13.34-2.63,26.89-3.64,40.69c-0.23,3.49-0.43,6.99-0.53,10.51
					c-0.05,3.52-0.18,7.12,0.54,10.64c0.65,3.53,1.54,6.98,2.46,10.45c0.92,3.48,1.91,6.95,2.94,10.42
					c4.14,14.03,8.73,28.15,13.56,42.43C596.75,411.93,594.55,404.75,592.41,397.61z M573.73,260.58c0.64,0.06,1.28,0.11,1.93,0.15
					c2.17,0.13,4.37,0.16,6.55,0.07c0.71,3.87,1.31,7.78,1.79,11.72C579.04,270.18,575.09,265.95,573.73,260.58z"/>
				<path d="M555.093,293.209l2.251,30.099c0.785,10.27,1.431,20.654,2.658,31.116c0.949,10.623,1.828,21.378,2.592,32.277
					c0.729,11.033,1.567,22.202,1.722,33.556c-0.191-5.685-0.697-11.308-1.14-16.901l-1.345-16.573
					c-0.917-10.879-1.782-21.636-2.801-32.241c-1.141-10.465-1.799-20.89-2.42-31.166l-0.841-15.209L555.093,293.209z"/>
			</g>
			<path d="M555.91,251.36c-0.25-0.1-0.53-0.11-0.8-0.05c-0.13,0.02-0.27,0.07-0.38,0.14c-0.12,0.09-0.23,0.21-0.3,0.34
				c-0.05,0.08-0.04,0.16-0.01,0.23c-0.17,0.37-0.13,0.83,0.08,1.17c0.27,0.44,0.8,0.69,1.3,0.52c0.51-0.16,0.88-0.65,0.92-1.18
				C556.76,251.99,556.39,251.54,555.91,251.36z"/>
		</g>
		<path d="M552.347,249.186c0,0-9.208-4.573-8.753-7.504c0.455-2.931,2.489-6.475,2.515-9.641c0.026-3.166-4.76-11.066-1.162-19.157
			c3.598-8.09,6.17-15.247,8.316-17.261c2.147-2.014,12.099-5.312,21.838-5.429c9.739-0.117,21.401,4.393,21.798,7.855
			c0.397,3.462-8.94,38.794-8.232,42.587c0.657,3.519,3.326,5.485,3.022,7.829c-0.304,2.344-3.552,3.425-5.887,5.052
			C582.521,255.802,561.244,254.446,552.347,249.186z"/>
		<g>
			<path style="fill:#FFC2BD;" d="M576.855,191.661c0,0-5.362,6.39-11.972,6.817c-6.622,0.44-1.58-6.222-1.58-6.222l-0.285-3.053
				l-0.836-8.822l13.565-0.608l0.274,2.975L576.855,191.661z"/>
			<path style="fill:#F75752;" d="M576.021,182.748c-0.18,0.272-0.487,0.45-0.638,0.75c-2.622,5.214-7.654,6.273-12.364,5.705
				l-0.836-8.822l13.565-0.608L576.021,182.748z"/>
		</g>
		<g>
			<path style="fill:#F3DCFF;" d="M588.77,192.54c-3.84,3.29-5.79,8.29-7.37,13.16c-6.25,19.14-8.99,39.41-9.76,59.71
				c-0.01,0.4-0.03,0.79-0.04,1.18c-0.02,0.4-0.03,0.8-0.04,1.2c-0.09,2.91-0.11,5.82-0.11,8.74c-0.01,0.08-0.01,0.16-0.01,0.25
				c0,1.94,0,3.89,0.01,5.83v1.22c0,0.4,0.05,1.14,0.04,1.96c-0.01,1.57-0.22,3.41-1.34,3.56c-1.29,0.17-2.18-2.16-2.5-3.25
				c-0.03-0.07-0.04-0.13-0.06-0.19c-0.21-0.79-0.38-1.62-0.49-2.47c-0.3-1.99-0.36-4.09-0.36-6.2c0-0.14,0-0.29,0.01-0.43
				c0.02-2.36,0.12-4.7,0.11-6.83c-0.01-0.98-0.01-1.97,0-2.95c0-0.32,0-0.64,0.01-0.96c0.03-4.12,0.18-8.24,0.43-12.34
				c0.75-12.43,2.42-24.76,4.89-36.88c1.52-7.47,3.39-14.97,7.1-21.53c1-1.78,2.23-3.56,4.09-4.38c0.38-0.17,0.79-0.28,1.21-0.33
				c0.51-0.08,1.05-0.06,1.56,0.05C587.26,190.87,588.27,191.5,588.77,192.54z"/>
			<path style="fill:#E0B1FF;" d="M586.15,190.66c-0.55,0.77-1.08,1.57-1.59,2.38c-7.02,11.26-9.55,24.76-11.71,37.69
				c-1.22,7.22-2.23,14.47-2.88,21.75c-0.4,4.42-0.65,8.84-0.77,13.26c-0.01,0.36-0.02,0.71-0.03,1.07
				c-0.06,2.45-0.08,4.91-0.07,7.37c0.01,0.44-0.59,0.47-0.62,0.04c-0.15-2.43-0.23-4.88-0.23-7.33c0-0.34,0-0.68,0.01-1.02
				c0.02-5.48,0.38-10.99,0.91-16.46c0.72-7.34,1.77-14.66,3.01-21.95c1.16-6.88,2.49-13.77,4.64-20.44
				c1.88-5.8,4.37-11.4,7.77-16.41C585.1,190.53,585.64,190.55,586.15,190.66z"/>
			<path style="fill:#F3DCFF;" d="M609.33,306.19c-0.04,0.24-0.09,0.48-0.14,0.71c-0.35,1.68-0.89,3.23-1.75,4.49
				c-5.67,8.3-40.26,9.01-43.13,4.95c-0.78-1.1-0.95-2.94-1.16-4.28c-0.16-1.08-0.3-2.17-0.4-3.26c-0.02-0.18-0.04-0.36-0.05-0.54
				c-0.14-1.38-0.23-2.76-0.31-4.14c-0.35-5.88-0.39-11.8-0.17-17.69c0.11-2.77,0.28-5.55,0.58-8.3c0.37-3.43,1.01-6.75,2.47-9.77
				c0.76-1.58,1.85-1.36,3.26-1.49c1.51-0.14,3.03-0.28,4.55-0.42c3.1-0.29,6.2-0.59,9.31-0.88c6.2-0.58,12.41-1.16,18.62-1.74
				c1.11-0.1,2.3-0.18,3.25,0.52c0.02,0.02,0.05,0.04,0.07,0.06c1.55,1.25,1.84,4.23,2.28,6.19c0.63,2.79,1.17,5.61,1.61,8.44
				c0.89,5.75,1.4,11.58,1.5,17.41C609.78,299.33,609.88,302.95,609.33,306.19z"/>
			<path style="fill:#E0B1FF;" d="M609.33,306.19c-0.04,0.24-0.09,0.48-0.14,0.71c-8.33,1.92-16.85,2.99-25.39,3.2
				c-7.04,0.18-14.09-0.25-21.05-1.3c-0.02-0.18-0.04-0.36-0.05-0.54c3.01,0.42,6.04,0.73,9.08,0.93
				c9.25,0.63,18.58,0.26,27.75-1.12C602.82,307.57,606.09,306.95,609.33,306.19z"/>
			<path style="fill:#E0B1FF;" d="M562.082,276.777c-0.702-0.525-0.221-9.315,1.117-10.036c1.338-0.721,43.511-5.872,44.63-3.62
				c1.12,2.252,2.111,10.196,1.18,10.205C608.078,273.334,563.36,277.731,562.082,276.777z"/>
		</g>
		<g>
			<path style="fill:#FFC2BD;" d="M585.055,277.758c-0.741,2.406-1.043,4.938-1.141,7.447c-0.099,2.543-0.006,5.116,0.225,7.65
				c0.108,1.18,0.261,2.36,0.463,3.528c0.201,0.21,0.395,0.346,0.57,0.357c0.931,0.089,0.232-1.68-0.119-3.871
				c-0.305-1.883-0.606-3.223-0.424-3.217c0.369,0.017,0.476,1.855,1.291,3.435c0.919,1.655,1.406,1.256,1.039-0.939
				c-0.409-2.1-0.271-5.974,0.535-8.585c0.473-2.426,2.52-4.63,2.708-6.062c0.234-1.763-2.101-2.808-3.656-3.554
				C585.975,275.188,585.457,276.452,585.055,277.758z"/>
			<path style="fill:#FFC2BD;" d="M587.494,283.564c-0.807,2.611-0.944,6.485-0.535,8.585c0.367,2.195-0.119,2.594-1.039,0.939
				c-0.815-1.58-0.922-3.417-1.291-3.435c-0.182-0.005,0.119,1.335,0.424,3.218c0.351,2.191,1.049,3.96,0.119,3.87
				c-1.148-0.072-3.062-5.07-3.113-6.683c-0.211-1.608-0.181,4.133,0.547,6.534c0.692,2.6-0.476,3.185-1.931-0.249
				c-1.286-3.403-1.282-5.85-1.667-6.692c-0.271,0.705-0.647,1.548-0.234,5.498c0.494,2.971-0.924,2.972-2.004-0.167
				c-1.311-3.827,0.185-8.773-0.577-9.389c-0.766-0.107-1.153,1.124-3.055,3.517c-1.797,2.552-1.197-1.966,0.507-4.866
				c1.63-3.013,3.557-6.363,5.741-8.146c2.891-2.358,4.468-3.536,6.988-2.233c1.547,0.751,4.071,1.811,3.828,3.637
				C590.014,278.934,587.967,281.138,587.494,283.564z"/>
			<path id="XMLID_8_" style="fill:#FFC2BD;" d="M592.562,194.755c-9.497-1.776-10.331,7.357-6.093,15.442
				c4.295,8.195,18.024,24.111,17.592,25.296c-0.432,1.185-21.319,34.854-20.982,37.684c0.338,2.831,5.465,3.966,6.613,4.701
				c1.149,0.735,26.754-30.608,28.546-37.635C620.031,233.217,602.059,196.531,592.562,194.755z"/>
		</g>
		<g>
			<path id="XMLID_5_" style="fill:#FFC2BD;" d="M551.996,145.443c0.165-0.22,0.335-0.437,0.509-0.65
				c4.86-5.959,13.015-8.881,20.717-6.579c4.679,1.398,8.624,4.67,10.913,8.993c3.936,7.825,2.686,19.469-2.03,27.7
				c-0.21,0.375-0.421,0.733-0.647,1.083c-3.222,5.088-7.154,7.614-10.501,8.859c-3.068,1.14-5.64,1.206-6.755,1.211
				c-2.938,0.003-7.415-0.679-9.435-2.29c-3.076-2.453-4.564-6.81-5.681-11.273c-0.63-2.518-0.924-5.092-1.121-7.66
				c-0.163-2.12-0.411-4.294-0.369-6.422c0.085-4.275,1.373-8.485,3.709-11.995C551.526,146.087,551.757,145.761,551.996,145.443z"
				/>
			<g>
				<path style="fill:#FF7088;" d="M551.692,143.118c0.012,1.171,0.505,2.527,1.738,3.107c0.777,0.37,1.627,0.419,2.49,0.382
					c0.444-0.012,0.9-0.062,1.331-0.086c3.057-0.222,6.238-1.011,9.234-0.062c2.675,0.863,4.265,2.725,5.437,4.944
					c0.752,1.405,1.443,2.725,2.675,3.859c1.245,1.122,1.541,2.712,1.738,4.303c0.259,2.194,0.394,5.067,1.911,5.461
					c0.542,0.136,0.974-0.062,1.331-0.419c0.21-0.185,0.395-0.419,0.567-0.678c0.407-0.567,0.74-1.196,1.109-1.467
					c1.812-1.356,3.834-0.875,5.079-0.468c0.197,0.049,0.37,0.111,0.53,0.173c0.321,0.111,0.555,0.173,0.641,0.123
					c0.444-0.234,0.851-0.518,1.233-0.875c0.025-0.025,0.049-0.049,0.086-0.074c1.615-1.566,2.552-4.105,3.057-6.127
					c0.727-2.848,0.703-5.893-0.148-8.716c-1.356-4.537-4.635-7.902-8.667-10.072c-0.752-0.431-1.541-0.801-2.342-1.134
					c-1.59-0.653-3.255-1.146-4.944-1.479c-0.567-0.111-1.159-0.21-1.75-0.296c-0.013,0-0.013,0-0.013,0
					c-6.978-1.023-15.299-0.234-20.058,5.4c-0.752,0.888-1.541,1.726-1.96,2.712C551.803,142.095,551.692,142.588,551.692,143.118z"
					/>
				<path style="opacity:0.28;fill:#FFFFFF;" d="M563.342,143.032c0.813,0.715,1.861,1.085,2.909,1.331
					c2.17,0.493,4.45,0.518,6.62,0.074c1.122-0.222,2.478-0.986,2.231-2.108c-0.197-0.888-1.418-1.603-1.023-2.429
					c0.37-0.752,1.479-0.395,2.256-0.086c0.961,0.407,2.108,0.567,3.033,0.074c0.925-0.481,1.442-1.8,0.814-2.638
					c0.727,0.086,1.492,0.16,2.145-0.136c0.308-0.136,0.58-0.395,0.74-0.69c-0.752-0.431-1.541-0.801-2.342-1.134
					c-1.59-0.653-3.255-1.146-4.944-1.479c-0.567-0.111-1.159-0.21-1.75-0.296c-0.013,0-0.013,0-0.013,0
					c-4.142,0.173-8.099,1.603-10.886,5.079c-0.382,0.469-0.727,0.974-0.863,1.553C562.023,141.208,562.54,142.317,563.342,143.032z
					"/>
			</g>
			<g>
				<path style="fill:#FF7088;" d="M561.917,157.283c-1.117,1.279,2.037,0.141,4.796,0.578c2.634,0.417,5.17,2.228,5.322,1.853
					c0.152-0.375-1.204-2.948-4.028-3.531C565.182,155.6,562.778,156.296,561.917,157.283z"/>
				<path style="fill:#FF7088;" d="M551.956,156.395c1.602-0.503,2.8,0.114,3.127,0.982c0.424,1.126-1.117,0.118-2.664,0.493
					c-1.477,0.358-3.095,1.94-3.125,1.61C549.265,159.151,550.354,156.898,551.956,156.395z"/>
				<path d="M567.582,164.97c-1.188-0.228-2.957-0.067-3.681,1.035c-0.123,0.187,0.129,0.39,0.343,0.25
					c0.87-0.573,2.245-0.606,3.141-0.335c1.018,0.308,1.722,1.044,2.757,1.319c0.143,0.038,0.322-0.069,0.276-0.206
					C570.059,165.957,568.848,165.213,567.582,164.97z"/>
				<path d="M552.451,164.834c0.912-0.216,2.27-0.03,2.826,1.099c0.095,0.192-0.099,0.395-0.263,0.249
					c-0.668-0.593-1.724-0.645-2.412-0.381c-0.782,0.3-1.322,1.038-2.117,1.304c-0.11,0.037-0.247-0.074-0.212-0.213
					C550.549,165.805,551.479,165.064,552.451,164.834z"/>
				<path style="fill:#F75752;" d="M557.025,162.354c-0.069-0.115-0.24-0.051-0.219,0.08c0.271,1.678,0.954,3.923-0.415,5.323
					c-0.54,0.552-1.437,0.871-1.588,1.713c-0.142,0.793,0.422,1.595,0.956,2.126c0.179,0.178,0.43-0.063,0.285-0.258
					c-0.272-0.368-0.466-0.788-0.557-1.237c-0.114-0.563,0.193-0.851,0.617-1.164c0.678-0.501,1.221-0.963,1.562-1.749
					C558.374,165.558,557.895,163.811,557.025,162.354z"/>
			</g>
			<g>
				<path style="fill:#FFC2BD;" d="M579.176,169.922c0.654,2.426,4.214,3.446,7.219,1.423c3.005-2.023,5.414-8.433,3.415-12.068
					c-1.999-3.635-7.208-2.288-9.353,1.837C578.838,164.228,578.666,168.03,579.176,169.922z"/>
				<path style="fill:#F75752;" d="M587.666,161.093c0.121-0.117,0.078-0.348-0.078-0.398c-0.68-0.216-1.468,0.22-2.057,0.569
					c-0.649,0.384-1.26,0.879-1.767,1.464c-1.027,1.184-1.751,2.77-1.793,4.406c-0.008,0.306,0.427,0.414,0.504,0.097
					c0.348-1.443,0.901-2.804,1.871-3.889c0.131-0.146,0.277-0.271,0.417-0.405c0.051,0.076,0.112,0.147,0.164,0.218
					c0.093,0.129,0.19,0.254,0.282,0.384c0.186,0.264,0.345,0.547,0.492,0.839c0.299,0.591,0.467,1.253,0.807,1.818
					c0.063,0.105,0.255,0.13,0.285-0.027c0.143-0.758-0.138-1.497-0.468-2.148c-0.166-0.329-0.369-0.641-0.586-0.933
					c-0.105-0.142-0.214-0.279-0.339-0.401c-0.056-0.056-0.112-0.111-0.171-0.162c0.218-0.172,0.44-0.339,0.678-0.481
					C586.468,161.709,587.185,161.558,587.666,161.093z"/>
			</g>
			<path style="fill:#F75752;" d="M556.22,173.156c1.283-0.039,2.538,0.263,3.825,0.062c0.633-0.099,1.245-0.283,1.846-0.503
				c0.289-0.106,0.563-0.24,0.845-0.364c0.14-0.062,0.302-0.162,0.459-0.175c0.054-0.004,0.122,0.027,0.168,0.022
				c0.093-0.011-0.079,0.015,0.117-0.066c0.17-0.071,0.262,0.17,0.164,0.282c-0.084,0.096-0.081,0.164-0.152,0.276
				c-0.084,0.134-0.241,0.237-0.365,0.333c-0.287,0.219-0.612,0.393-0.936,0.551c-0.644,0.315-1.346,0.519-2.052,0.637
				c-1.375,0.232-2.956,0.278-4.098-0.624C555.858,173.444,556.021,173.162,556.22,173.156z"/>
			<g>
				<path style="fill:#A4BEF4;" d="M572.332,168.962c1.263-0.557,2.456-1.337,3.604-2.315c0.563-0.48,1.117-0.997,1.66-1.531
					c0.546-0.538,1.051-1.134,1.651-1.53c0.19-0.125,0.496,0.161,0.331,0.498c-0.406,0.827-0.924,1.389-1.486,1.951
					c-0.578,0.577-1.175,1.084-1.797,1.539c-1.225,0.894-2.514,1.611-3.817,2.186C572.139,169.907,571.995,169.111,572.332,168.962z
					"/>
				<path style="fill:#A4BEF4;" d="M574.743,182.835c0.281-0.442,0.76-0.714,1.121-1.076c0.39-0.389,0.819-0.734,1.222-1.11
					c0.809-0.756,1.577-1.553,2.278-2.427c0.69-0.86,1.334-1.775,1.909-2.728c0.605-1.003,1.038-2.053,1.507-3.13
					c0.133-0.306,0.596-0.096,0.503,0.224c-0.323,1.111-0.838,2.194-1.346,3.223c-0.522,1.058-1.127,2.048-1.82,2.985
					c-0.696,0.94-1.463,1.839-2.306,2.629c-0.392,0.367-0.802,0.756-1.243,1.048c-0.441,0.292-0.972,0.74-1.49,0.829
					C574.85,183.341,574.579,183.092,574.743,182.835z"/>
				<path style="fill:#F3DCFF;" d="M548.67,175.828c0.633,1.832,2.167,8.509,8.216,10.79c6.224,2.347,13.048,0.821,17.427-1.832
					c5.29-3.205,1.712-16.951-2.475-16.184c-7.731,1.415-10.197-0.356-14.137-1.054c-3.94-0.698-4.286,2.457-8.49,2.501
					C547.295,170.068,548.038,173.996,548.67,175.828z"/>
			</g>
		</g>
	</g>
	<g>
		<g>
			<path style="fill:#FF7088;" d="M388.82,433.9c0.01,0.81-0.07,1.56-0.23,2.14c-0.18,0.67-0.48,1.13-0.86,1.22
				c-1.5,0.39-24.73,1.25-24.93-1.03c-0.02-0.24,0.06-0.48,0.22-0.73c1.33-2.06,8.52-4.16,11.92-5.41c3.8-1.4,13.03-4.75,13.37-2.24
				C388.71,430.89,388.79,431.9,388.82,433.9z"/>
			<path style="fill:#FF7088;" d="M388.59,436.04c-0.18,0.67-0.48,1.13-0.86,1.22c-1.5,0.39-24.73,1.25-24.93-1.03
				c-0.02-0.24,0.06-0.48,0.22-0.73c0.11,0.01,0.21,0.03,0.32,0.04c1.19,0.17,2.39,0.32,3.58,0.45c4.36,0.5,8.76,0.71,13.15,0.62
				c2.2-0.05,4.39-0.17,6.58-0.37C387.29,436.19,387.94,436.12,388.59,436.04z"/>
		</g>
		<g>
			<path style="fill:#FF7088;" d="M456.37,424.61c-1.26,1.11-23.85,13.63-25.46,11.66c-0.1-0.13-0.17-0.28-0.21-0.44
				c-0.52-2.36,5.77-8.28,8.5-11.26c2.92-3.19,10.03-10.89,11.91-8.78c2.29,2.55,2.99,3.42,4.26,5.22c0.49,0.7,0.86,1.38,1.06,1.98
				C456.69,423.73,456.69,424.32,456.37,424.61z"/>
			<path style="fill:#FF7088;" d="M456.37,424.61c-1.26,1.11-23.85,13.63-25.46,11.66c-0.1-0.13-0.17-0.28-0.21-0.44
				c0.98-0.49,2.11-0.8,3.13-1.18c1.13-0.43,2.25-0.87,3.37-1.31c4.07-1.63,8.05-3.54,11.86-5.71c1.91-1.09,3.78-2.24,5.62-3.45
				c0.59-0.39,1.17-0.78,1.75-1.19C456.69,423.73,456.69,424.32,456.37,424.61z"/>
		</g>
		<g>
			<g>
				<path id="XMLID_244_" style="fill:#FAA898;" d="M354.665,284.706c3.187,1.193,4.096,3.754,4.301,7.392
					c0.152,2.704-0.74,6.236-0.713,9.534c0.026,3.188-0.541,7.088-1.75,4.04c-1.21-3.051-0.764-4.314-1.662-4.735
					c-1.262-0.033-2.56,5.01-4.585,7.87c-1.687,2.383-3.158,1.92-2.135-0.751c1.378-3.599,1.613-4.549,1.562-5.391
					c-0.804,0.578-2.2,3.413-4.446,6.238c-2.246,2.826-3.807,1.927-2.526-0.544c1.144-2.205,4.391-8.683,3.361-7.134
					c-1.03,1.548-5.557,6.581-6.422,5.792c-0.865-0.789,0.048-2.352,1.537-4.381c1.449-1.974,2.499-3.344,2.29-3.453
					c-0.426-0.222-1.781,1.464-3.662,2.84c-2.12,1.552-2.733,0.659-1.062-1.93c1.576-2.441,4.218-6.764,6.028-10.009
					C348.441,283.525,351.478,283.513,354.665,284.706z"/>
				<path id="XMLID_242_" style="fill:#FAA898;" d="M384.112,187.849c-3.005-0.536-6.621,2.18-8.652,6.515
					c-3.501,7.474-4.469,19.591-5.197,26.914c-1.15,11.571,1.15,15.155-6.735,29.507c-7.885,14.352-13.698,31.908-15.275,34.65
					c-1.577,2.741,7.45,9.827,10.205,5.207c2.755-4.62,23.488-35.05,25.775-45.957C386.518,233.777,398.517,190.419,384.112,187.849
					z"/>
			</g>
			<g>
				<path style="fill:#FF7088;" d="M397.74,191.266c0.039,7.545-2.862,25.33-8.561,40.226c-5.802-1.868-11.401-3.582-16.61-5.913
					c-2.735-1.219-5.327-2.641-7.834-4.131c0.247-1.678,0.537-3.429,0.843-5.232c0.036-0.164,0.061-0.337,0.087-0.499
					c1.975-11.182,5.181-24.045,9.851-30.29c3.932-5.258,9.928-8.586,13.81-6.994C393.28,180.068,397.693,183.17,397.74,191.266z"/>
				<path d="M388.984,223.418c-8.369,1.997-16.548-2.978-23.406-7.203c0.036-0.164,0.061-0.337,0.087-0.499
					c1.538,0.961,3.095,1.901,4.668,2.799c3.62,2.056,7.455,3.923,11.578,4.711c2.327,0.451,4.709,0.487,7.038,0.025
					C389.038,223.233,389.072,223.39,388.984,223.418z"/>
			</g>
		</g>
		<g>
			<path id="XMLID_238_" d="M374.295,260.805c-3.902,12.716-9.688,87.637-9.862,97.229c-0.151,8.296,2.483,47.858,4.357,72.167
				c1.965,2.409,20.122,1.561,22.165,0.904c0.03-0.01-2.478-68.354-1.991-74.886c0.599-8.035,5.147-47.047,6.382-56.982
				c3.128,0.398,3.649,52.18,7.554,63.467c3.91,11.303,34.859,63.295,34.859,63.295c5.047,0.015,15.08-5.122,17.492-7.317
				c-5.116-16.341-25.132-55.403-26.98-65.575c-1.845-10.16,4.468-77.159,1.703-92.302
				C407.791,262.6,383.186,260.652,374.295,260.805z"/>
			<g style="opacity:0.56;">
				<path style="fill:#FFFFFF;" d="M390.578,300.935c-2.393,10.496-4.574,21.039-6.387,31.648
					c-0.91,5.303-1.742,10.621-2.346,15.971c-0.293,2.676-0.535,5.36-0.573,8.063c0,2.72,0.208,5.374,0.272,8.067
					c0.41,10.737,0.746,21.479,1.037,32.222l0.393,16.115c0.125,5.372,0.324,10.743,0.28,16.117
					c0.213-10.748-0.051-21.496-0.254-32.241c-0.23-10.745-0.459-21.491-0.846-32.234c-0.081-2.678-0.31-5.387-0.324-8.042
					c0.021-2.671,0.245-5.348,0.52-8.016c0.569-5.338,1.366-10.655,2.243-15.959c0.875-5.304,1.851-10.594,2.858-15.877
					C388.44,311.481,389.477,306.202,390.578,300.935z"/>
				<g>
					<path style="fill:#FFFFFF;" d="M448.807,419.574c-3.101-6.141-6.146-12.307-9.156-18.489c-3.033-6.171-6.028-12.36-8.925-18.59
						c-2.878-6.235-5.743-12.489-8.157-18.895c-0.577-1.605-1.151-3.226-1.503-4.867c-0.328-1.631-0.273-3.359-0.291-5.055
						c0.02-3.408,0.188-6.82,0.331-10.23c0.648-13.645,1.636-27.279,2.546-40.915c0.457-6.818,0.924-13.636,1.316-20.459
						c0.185-3.412,0.355-6.825,0.482-10.24c0.061-1.707,0.114-3.415,0.131-5.124c-0.015-1.704,0.08-3.429-0.245-5.112
						c0.301,1.685,0.181,3.408,0.172,5.111c-0.042,1.707-0.119,3.413-0.205,5.119c-0.176,3.411-0.396,6.821-0.629,10.229
						l-1.429,20.45c-0.977,13.632-2.033,27.259-2.749,40.914c-0.176,3.414-0.292,6.832-0.306,10.256
						c0.028,1.711-0.025,3.431,0.327,5.159c0.375,1.703,0.962,3.322,1.551,4.938c2.46,6.425,5.358,12.663,8.272,18.89
						c2.932,6.219,5.961,12.395,9.028,18.552C442.467,407.359,445.613,413.478,448.807,419.574z"/>
				</g>
				<g>
					<path style="fill:#FFFFFF;" d="M385.922,297.434c1.812,0.269,3.612,0.424,5.406,0.632c0.898,0.089,1.792,0.203,2.684,0.32
						c0.892,0.126,1.779,0.267,2.665,0.494c-0.791-0.461-1.684-0.725-2.571-0.949c-0.89-0.228-1.799-0.36-2.707-0.464
						C389.579,297.282,387.746,297.234,385.922,297.434z"/>
					<path style="fill:#FFFFFF;" d="M390.525,272.159c-0.565,3.151-0.961,6.334-1.16,9.532c-0.117,1.598-0.155,3.2-0.173,4.802
						c-0.001,0.807-0.017,1.588,0.017,2.418c0.029,0.415,0.101,0.867,0.349,1.278c0.248,0.43,0.728,0.724,1.241,0.77
						c0.258,0.023,0.547-0.027,0.789-0.182c0.243-0.156,0.402-0.401,0.476-0.633c0.141-0.476,0.116-0.855,0.164-1.255l0.195-2.39
						l0.374-4.78c0.236-3.188,0.433-6.379,0.596-9.573c-0.393,3.175-0.754,6.353-1.074,9.534l-0.461,4.773l-0.223,2.387
						c-0.046,0.392-0.05,0.825-0.149,1.118c-0.1,0.298-0.321,0.423-0.633,0.401c-0.679-0.037-1.018-0.731-1.05-1.489
						c-0.04-0.766-0.036-1.585-0.044-2.375c-0.01-1.594,0.042-3.187,0.083-4.782C389.956,278.526,390.185,275.34,390.525,272.159z"
						/>
				</g>
			</g>
		</g>
		<g>
			<path id="XMLID_237_" style="fill:#CADB6A;" d="M368.028,290.723c16.248,3.467,48.568,5.798,65.597,1.923
				c1.41-0.321,2.408-1.555,2.485-2.999c0.662-12.402-5.145-51.328-1.706-67.256c1.202-5.564,7.269-33.185,4.51-36.965
				c-7.335-10.05-23.663-10.919-33.338-10.655c-8.936,0.243-21.538,1.857-27.637,7.963c-4.635,4.64-4.3,18.986-3.791,38.261
				C374.659,240.313,366.192,285.673,368.028,290.723z"/>
			<g>
				<path style="fill:#FF7088;" d="M417.51,206.544h-13.653c0,0-3.052,17.508,6.104,17.508
					C419.117,224.052,417.51,206.544,417.51,206.544z"/>
				<path d="M403.767,209.517c2.2,0.249,4.355,0.597,6.578,0.605c2.284,0.008,4.538-0.26,6.792-0.609
					c0.1-0.016,0.146,0.13,0.043,0.156c-2.186,0.555-4.465,0.762-6.717,0.765c-2.219,0.003-4.578-0.124-6.717-0.757
					C403.662,209.651,403.673,209.507,403.767,209.517z"/>
			</g>
			<path style="fill:#FF7088;" d="M392.976,182.789c0,3.201,3.355,4.017,9.66,2.634c6.305-1.382,11.68-4.615,11.68-7.816
				c0-3.201-4.848-3.402-11.153-2.02C396.858,176.97,392.976,179.588,392.976,182.789z"/>
		</g>
		<g>
			<defs>
				<path id="XMLID_236_" d="M395.121,167.663l1.55,11.667c0,0-3.757,3.538,1.878,3.723c5.635,0.184,12.947-3.557,13.048-6.117
					c0.101-2.559-1.194-11.773-1.194-11.773L395.121,167.663z"/>
			</defs>
			<use xlink:href="#XMLID_236_"  style="overflow:visible;fill:#FAA898;"/>
			<clipPath id="XMLID_00000132080835433457534720000014884834373412916633_">
				<use xlink:href="#XMLID_236_"  style="overflow:visible;"/>
			</clipPath>
			<path style="clip-path:url(#XMLID_00000132080835433457534720000014884834373412916633_);fill:#F75752;" d="M393.067,169.154
				c1.047-1.903,2.852-3.184,4.705-4.132c4.347-2.223,9.32-2.913,14.027-2.051c-0.338,0.453-0.671,0.915-1.018,1.346
				c-2.383,2.964-5.005,5.507-7.879,7.411c-1.668,1.105-3.379,1.976-5.117,2.718c-1.471,0.49-3.841,1.353-4.794,0.442
				C391.661,173.617,392.301,170.546,393.067,169.154z"/>
		</g>
		<g>
			<g>
				<path style="fill:#E84357;" d="M457.806,328.237c-1.356-4.199-2.259-8.582-3.808-12.712c-1.392-3.712-3.48-7.271-6.912-9.43
					c-3.327-2.092-7.57-2.541-11.036-0.521c-3.734,2.176-5.631,6.194-7.445,9.925c-2.129,4.378-4.629,9.325-4.409,14.32
					c0.056,1.278,1.913,1.6,2.271,0.307c1.051-3.791,2.215-7.385,3.922-10.94c1.6-3.333,3.149-7.194,5.941-9.723
					c2.524-2.286,5.865-2.374,8.746-0.686c2.956,1.732,4.707,4.89,5.831,8.025c1.491,4.157,2.018,8.687,3.917,12.693
					C455.613,331.165,458.372,329.99,457.806,328.237z"/>
				<path style="fill:#FF7088;" d="M465.77,349.8c-0.05,0.77-0.11,1.56-0.19,2.35c-1.45,15.44-7.31,33.16-24.39,33.16
					c-22.73,0-26.44-19.51-25.98-38.25c0.01-0.46,0.02-0.92,0.03-1.38c0.18-5.23,0.66-10.37,1.11-14.96
					c0.38-3.82,45.7-3.19,48.01-0.98C465.27,330.61,466.47,339.43,465.77,349.8z"/>
				<path style="opacity:0.47;fill:#E84357;" d="M441.82,343.095c5.994,1.837,11.904,3.182,18.224,2.686
					c2.248-0.176,4.166-0.728,5.931-1.491c0.061-7.823-0.873-13.836-1.615-14.548c-2.306-2.213-47.634-2.841-48.008,0.983
					c-0.384,3.931-0.788,8.261-1.01,12.709C423.729,340.281,433.149,340.437,441.82,343.095z"/>
				<path style="opacity:0.47;fill:#E84357;" d="M465.77,349.8c-0.05,0.77-0.11,1.56-0.19,2.35c-1.18,0.23-2.36,0.37-3.51,0.47
					c-8.81,0.73-17.38-2.58-25.75-4.8c-4.17-1.11-8.39-1.92-12.72-1.98c-2.12-0.04-4.26,0.13-6.34,0.61
					c-0.7,0.16-1.38,0.37-2.05,0.61c0.01-0.46,0.02-0.92,0.03-1.38c2.61-0.99,5.55-1.41,8.15-1.57c8.92-0.55,17.39,2.88,25.92,4.89
					c4.14,0.98,8.3,1.54,12.56,1.33C463.22,350.27,464.51,350.08,465.77,349.8z"/>
			</g>
			<g>
				<path id="XMLID_235_" style="fill:#FAA898;" d="M433.167,191.416c-2.982,0.648-5.293,4.535-5.522,9.317
					c-0.393,8.244,3.322,19.818,5.435,26.867c3.339,11.138,6.83,13.577,5,29.85c-1.83,16.273-0.526,34.72-0.941,37.855
					c-0.415,3.135,10.629,6.252,11.418,0.932c0.79-5.321,8.384-41.351,6.348-52.308C452.87,232.973,447.467,188.311,433.167,191.416
					z"/>
				<g>
					<path style="fill:#FAA898;" d="M451.59,306.49c0.02,1.83-1.03,3.67-2.69,4.83c-0.15,0.11-0.3,0.21-0.48,0.27
						c-0.29,0.11-0.62,0.11-0.94,0.11c-2.02,0.01-4.04,0.25-6.06,0.29c-2.01,0.05-4.11-0.12-5.96-0.88c-0.11-0.05-0.23-0.1-0.3-0.18
						c-0.18-0.22,0.04-0.47,0.21-0.68c0.69-0.81,0.43-2.78,0.38-4.15c-0.02-0.01-0.04-0.02-0.07-0.02
						c-0.31-0.05-0.86,0.33-1.33,0.72c-0.33,0.28-0.61,0.57-0.73,0.71c-0.81-0.72-1.7-1.54-1.88-2.54
						c-0.11-0.63,0.07-1.25,0.28-1.85c0.66-1.88,1.57-3.79,2.72-5.7c0.98-1.63,2.02-3.61,4.13-4.22c1.03-0.3,2.12-0.21,3.19-0.11
						c2.25,0.21,4.73,0.59,5.96,2.36c0.39,0.56,0.61,1.22,0.83,1.86c0.73,2.17,1.41,4.21,2.05,6.13
						C451.24,304.46,451.58,305.46,451.59,306.49z"/>
					<path style="opacity:0.32;fill:#FFBCB7;" d="M435.68,306.08c-0.31-0.05-0.86,0.33-1.33,0.72c-0.04-0.06-0.06-0.11-0.09-0.16
						c-0.37-0.69-0.4-1.53-0.19-2.27c0.31-1.05,1.04-1.95,1.75-2.82C435.31,303,435.39,304.57,435.68,306.08z"/>
				</g>
				<g>
					<path style="fill:#FF7088;" d="M453.84,221.18c-0.57,0.21-1.15,0.41-1.72,0.62c-5.06,1.87-10.08,3.85-15.23,5.45
						c-1.63,0.5-3.27,0.96-4.91,1.38c-0.56-1.53-1.09-3.05-1.6-4.53c-0.07-0.19-0.13-0.37-0.19-0.56
						c-2.38-6.92-4.25-13.02-5.43-16.82c-3.97-12.74-5.1-26.34,5.99-26.54c11.1-0.2,18.85,24.36,20.08,30.85
						c0.15,0.82,0.44,1.97,0.84,3.37c0.04,0.11,0.07,0.22,0.11,0.34C452.3,216.56,453.01,218.77,453.84,221.18z"/>
					<path d="M451.78,214.74c-6.47,3.65-13.28,6.66-20.33,9.01c-0.36,0.12-0.71,0.23-1.07,0.35c-0.07-0.19-0.13-0.37-0.19-0.56
						c2.11-0.68,4.2-1.38,6.27-2.16c4.07-1.53,8.04-3.29,11.91-5.26c1.11-0.56,2.21-1.13,3.3-1.72
						C451.71,214.51,451.74,214.62,451.78,214.74z"/>
				</g>
			</g>
		</g>
		<g>
			<path style="fill:#6A5E49;" d="M380.042,132.852c-0.036-1.052-0.009-2.154,0.501-3.098c0.51-0.944,1.644-1.667,2.687-1.395
				c0.641,0.167,1.135,0.675,1.41,1.258c0.275,0.582,0.357,1.236,0.397,1.881c0.197,3.164-1.086,8.792-2.864,9.323
				C380.395,141.351,380.138,135.635,380.042,132.852z"/>
			<path id="XMLID_233_" style="fill:#FAA898;" d="M380.278,150.876c-0.196,7.678,1.314,13.749,5.524,16.927
				c6.647,5.017,18.176,3.754,26.274-2.665c8.608-8.244,10.056-27.253,6.05-34.787c-2.081-4.249-10.623-7.22-18.921-7.895
				C382.21,120.44,379.555,136.58,380.278,150.876z"/>
			<g>
				<path d="M397.387,147.581c0.034,1.298,0.658,2.333,1.394,2.312c0.736-0.021,1.306-1.092,1.272-2.39
					c-0.034-1.298-0.658-2.332-1.395-2.311C397.922,145.213,397.353,146.283,397.387,147.581z"/>
				<path d="M383.503,147.792c0.033,1.241,0.558,2.233,1.172,2.217c0.614-0.017,1.084-1.036,1.051-2.277
					c-0.034-1.24-0.558-2.233-1.172-2.216C383.94,145.533,383.47,146.552,383.503,147.792z"/>
				<path d="M394.131,137.892c0.244-0.812,4.253-1.525,6.369-0.611c2.116,0.914,3.658,3.191,3.594,3.374
					c-0.064,0.183-3.433-1.336-5.807-1.711C396.111,138.6,393.887,138.705,394.131,137.892z"/>
				<path d="M386.908,138.517c-0.086-0.726-2.43-1.725-3.879-1.084c-1.45,0.641-2.102,2.315-2.077,2.479
					c0.025,0.164,2-0.391,3.273-0.686C385.617,138.904,386.994,139.243,386.908,138.517z"/>
				<path style="fill:#F75752;" d="M389.724,145.044c-0.037-0.251-0.423-0.277-0.532-0.07c-0.286,0.544-0.355,1.177-0.46,1.775
					c-0.113,0.644-0.227,1.289-0.341,1.933c-0.086,0.488-0.114,1.073-0.346,1.521c-0.245,0.473-0.777,0.295-1.216,0.393
					c-0.383,0.086-0.713,0.335-0.836,0.72c-0.144,0.453,0.044,0.918,0.215,1.337c0.405,0.996,0.993,1.818,1.816,2.507
					c0.066,0.055,0.189-0.019,0.129-0.1c-0.605-0.806-1.102-1.764-1.319-2.753c-0.044-0.202-0.117-0.508,0.008-0.7
					c0.121-0.186,0.367-0.132,0.573-0.14c0.415-0.016,0.811-0.099,1.118-0.398c0.655-0.638,0.656-1.797,0.793-2.637
					c0.095-0.582,0.19-1.164,0.285-1.746C389.7,146.144,389.805,145.593,389.724,145.044z"/>
			</g>
			<g>
				<path style="fill:#FAA898;" d="M416.777,154.179c0.552,1.995,3.365,2.695,5.693,0.88c2.327-1.814,4.115-7.259,2.487-10.203
					c-1.627-2.942-5.695-1.6-7.313,1.926C416.421,149.447,416.347,152.624,416.777,154.179z"/>
				<path style="fill:#F75752;" d="M423.83,146.94c0.104-0.102,0.062-0.293-0.077-0.328c-0.605-0.15-1.292,0.246-1.805,0.563
					c-0.565,0.348-1.094,0.786-1.53,1.296c-0.883,1.031-1.49,2.384-1.493,3.75c-0.001,0.255,0.386,0.326,0.447,0.059
					c0.278-1.218,0.739-2.377,1.573-3.323c0.112-0.127,0.239-0.238,0.36-0.355c0.046,0.061,0.102,0.118,0.149,0.175
					c0.085,0.103,0.173,0.204,0.257,0.308c0.17,0.212,0.316,0.441,0.452,0.678c0.276,0.48,0.438,1.024,0.75,1.481
					c0.058,0.085,0.228,0.097,0.251-0.035c0.11-0.637-0.153-1.242-0.457-1.77c-0.154-0.267-0.339-0.519-0.537-0.752
					c-0.096-0.114-0.195-0.223-0.307-0.32c-0.051-0.044-0.102-0.088-0.154-0.128c0.189-0.153,0.381-0.301,0.589-0.43
					C422.785,147.505,423.415,147.349,423.83,146.94z"/>
			</g>
			<path style="fill:#FFFFFF;" d="M391.229,155.733c1.921-0.004,3.097-1.898,4.91-0.561c1.445,1.065-0.735,4.402-4.259,4.574
				c-3.524,0.172-5.178-2.51-4.32-3.486C388.419,155.284,388.949,155.738,391.229,155.733z"/>
			<path style="fill:#6A5E49;" d="M411.929,138.038c-0.044,0.803-0.036,1.635,0.278,2.376c0.317,0.748,0.914,1.333,1.413,1.974
				c1.242,1.594,1.906,3.629,1.842,5.649c-0.013,0.428,0,0.963,0.389,1.145c0.525,0.245,0.986-0.428,1.2-0.967
				c0.603-1.52,1.522-3.074,3.049-3.66c0.646-0.248,1.39-0.32,1.904-0.783c0.372-0.335,0.561-0.824,0.72-1.298
				c0.731-2.17,1.126-4.452,1.168-6.741c0.026-1.444-0.126-2.993-1.038-4.113c-1.323-1.624-3.755-1.779-5.815-1.399
				c-1.077,0.199-2.158,0.518-3.042,1.165C412.099,132.772,412.047,135.896,411.929,138.038z"/>
			<path d="M429.72,132.93c-0.18,1.97-1.3,5.56-3.64,5.99c-1.3,0.63-2.81,0.76-4.16,0.06c-0.31-0.16-0.6-0.38-0.87-0.63
				c-0.56,1.26-1.49,2.32-2.79,2.79c-0.04,0.02-0.08,0.05-0.12,0.07c-0.4,0.21-0.85,0.25-1.28,0.19c-1.2,0.02-2.31-0.55-2.96-1.55
				c-0.88,0.41-1.83,0.67-2.68,0.26c-0.27-0.13-0.49-0.31-0.68-0.52c-0.82-0.47-1.49-1.27-1.92-2.09c-0.77-1.5-1.07-3.23-1.19-4.91
				c-0.06-0.78-0.05-1.57,0-2.35c-0.4,0.45-0.82,0.86-1.23,1.22c-2.17,1.88-4.81,3.06-7.48,4.02c-1.33,0.48-2.94,1.3-4.38,0.99
				c-1.05-0.23-1.81-1.03-2.12-2.04c-0.14-0.45-0.17-0.91-0.13-1.36c-1.88,1.03-3.99,1.63-6.14,1.68c-1.34,0.03-2.82-0.22-3.7-1.24
				c-0.72-0.84-0.66-2.29,0.11-2.97c-1.28,0.71-2.59,1.39-4,1.76c-1.63,0.43-3.44,0.41-4.91-0.4c-0.92-0.51-1.71-1.44-1.62-2.48
				c0.19-1.98,2.6-2.4,4.06-3.02c1.8-0.77,3.47-1.85,4.91-3.18c2.1-1.94,3.7-4.38,5.89-6.22c2.63-2.21,5.97-3.43,9.37-3.99
				c0.09-0.02,0.19-0.04,0.28-0.05c3.91-0.61,8.53-0.93,12.35,0.19c1.7,0.5,3.3,1.28,4.72,2.3c1.31,0.95,2.47,2.09,3.42,3.4
				c0.81,1.12,3.14,0.52,4.53,0.84c0.54,0.13,1.06,0.3,1.56,0.51c2.12,0.92,3.81,2.62,4.98,4.65c0.44,0.76,0.8,1.56,1.09,2.39
				C429.63,129.09,429.89,131.07,429.72,132.93z"/>
			<path style="opacity:0.2;fill:#F3DCFF;" d="M427.9,124.85c-0.45,1.14-1.08,2.21-1.86,3.15c-1.04,1.28-2.7,2.41-4.24,1.83
				c-0.98-0.37-1.58-1.32-2.21-2.15c-0.63-0.83-1.49-1.66-2.53-1.6c-0.95,0.04-1.69,0.81-2.24,1.58c-0.55,0.77-1.05,1.64-1.88,2.09
				c-1.5,0.82-3.5-0.18-4.27-1.71c-0.77-1.53-0.59-3.36-0.17-5.02c0.19-0.75,0.41-1.58,0.04-2.25c-0.43-0.78-1.48-0.98-2.37-0.87
				c-0.89,0.11-1.77,0.42-2.66,0.31c-0.88-0.11-1.8-0.88-1.6-1.76c0.15-0.66,0.82-1.03,1.39-1.39c0.57-0.36,1.17-0.94,1.02-1.6
				c-0.07-0.31-0.3-0.56-0.55-0.77c-1.91-1.58-4.74-0.95-7.19-1.38c-0.18-0.03-0.38-0.08-0.49-0.24c-0.01-0.02-0.02-0.04-0.03-0.06
				c0.09-0.02,0.19-0.04,0.28-0.05c3.91-0.61,8.53-0.93,12.35,0.19c1.7,0.5,3.3,1.28,4.72,2.3c-0.22,0.34-0.41,0.68-0.27,1.03
				c0.14,0.35,0.55,0.51,0.75,0.82c0.48,0.71-0.3,1.61-0.3,2.46c-0.01,0.98,1.01,1.67,1.97,1.84c0.97,0.17,1.98,0.03,2.92,0.3
				c1.28,0.37,2.43,1.48,3.75,1.25c0.23-0.04,0.47-0.14,0.59-0.34c0.09-0.17,0.08-0.37,0.07-0.56c-0.05-0.67-0.09-1.39,0.03-2.05
				C425.04,121.12,426.73,122.82,427.9,124.85z"/>
			<g>
				<path style="fill:#A4BEF4;" d="M406.175,152.123c1.929-0.493,3.753-1.213,5.508-2.133c0.861-0.452,1.708-0.94,2.536-1.447
					c0.834-0.51,1.607-1.081,2.524-1.446c0.29-0.115,0.757,0.186,0.505,0.514c-0.62,0.807-1.412,1.342-2.271,1.876
					c-0.883,0.548-1.796,1.025-2.747,1.448c-1.873,0.832-3.842,1.484-5.834,1.993C405.879,153.059,405.659,152.255,406.175,152.123z
					"/>
				<path style="fill:#A4BEF4;" d="M408.705,166.08c0.305-0.431,0.824-0.687,1.217-1.035c0.423-0.375,0.889-0.704,1.326-1.066
					c0.878-0.727,1.711-1.497,2.472-2.345c0.749-0.835,1.448-1.727,2.072-2.66c0.657-0.981,1.126-2.016,1.635-3.076
					c0.145-0.301,0.647-0.075,0.546,0.242c-0.351,1.099-0.91,2.164-1.46,3.175c-0.566,1.039-1.223,2.008-1.975,2.92
					c-0.755,0.915-1.587,1.786-2.502,2.546c-0.425,0.353-0.87,0.727-1.349,1.004c-0.479,0.276-1.055,0.705-1.617,0.775
					C408.822,166.59,408.527,166.332,408.705,166.08z"/>
				<path style="fill:#F3DCFF;" d="M379.667,158.207c0.364,2.306,2.288,9.616,8.852,12.114c6.754,2.57,14.967,0.19,19.719-2.306
					c5.741-3.015,1.857-16.889-2.686-16.273c-8.389,1.137-11.066-0.722-15.341-1.562c-4.275-0.84-4.651,2.303-9.213,2.196
					C378.92,152.327,379.359,156.254,379.667,158.207z"/>
			</g>
		</g>
	</g>
</g>
</svg>
